<?xml version="1.0" encoding="UTF-8" standalone="no"?>
<!-- Created with Inkscape (http://www.inkscape.org/) -->

<svg
   xmlns:dc="http://purl.org/dc/elements/1.1/"
   xmlns:cc="http://creativecommons.org/ns#"
   xmlns:rdf="http://www.w3.org/1999/02/22-rdf-syntax-ns#"
   xmlns:svg="http://www.w3.org/2000/svg"
   xmlns="http://www.w3.org/2000/svg"
   xmlns:sodipodi="http://sodipodi.sourceforge.net/DTD/sodipodi-0.dtd"
   xmlns:inkscape="http://www.inkscape.org/namespaces/inkscape"
   width="210mm"
   height="297mm"
   viewBox="0 0 210 297"
   version="1.1"
   id="svg8"
   inkscape:export-filename="C:\Users\Taribo\Documents\GW logo copa.png"
   inkscape:export-xdpi="96"
   inkscape:export-ydpi="96"
   sodipodi:docname="goodwines.svg"
   inkscape:version="0.92.3 (2405546, 2018-03-11)">
  <defs
     id="defs2" />
  <sodipodi:namedview
     id="base"
     pagecolor="#ffffff"
     bordercolor="#666666"
     borderopacity="1.0"
     inkscape:pageopacity="0.0"
     inkscape:pageshadow="2"
     inkscape:zoom="2"
     inkscape:cx="102.50383"
     inkscape:cy="1043.7188"
     inkscape:document-units="mm"
     inkscape:current-layer="g118"
     showgrid="false"
     inkscape:window-width="1920"
     inkscape:window-height="1017"
     inkscape:window-x="-8"
     inkscape:window-y="-8"
     inkscape:window-maximized="1" />
  <metadata
     id="metadata5">
    <rdf:RDF>
      <cc:Work
         rdf:about="">
        <dc:format>image/svg+xml</dc:format>
        <dc:type
           rdf:resource="http://purl.org/dc/dcmitype/StillImage" />
        <dc:title></dc:title>
        <dc:title></dc:title>
      </cc:Work>
    </rdf:RDF>
  </metadata>
  <g
     inkscape:label="Capa 1"
     inkscape:groupmode="layer"
     id="layer1">
    <g
       id="g118"
       transform="matrix(0.58246636,0,0,0.58246636,-3.0750446,-3.6269654)">
      <path
         id="path128"
         transform="matrix(0.45424655,0,0,0.45424655,5.2793514,6.2269097)"
         style="fill:#d24b8c;stroke-width:0.15635525"
         d="m 73.337891,4.4550781 c -11.136742,-0.00714 -22.138244,1.0433276 -27.316407,2.9394531 -1.930892,0.7070492 -4.911009,2.2312935 -5.912109,3.0234378 -2.351906,1.861 -3.633818,4.46467 -5.130859,10.423828 -1.262892,5.027087 -2.275127,10.646738 -2.726563,15.144531 -0.279231,2.781994 -0.324606,8.683719 -0.08594,11.023438 0.956612,9.37724 4.251959,16.64222 10.326172,22.761718 2.779829,2.800559 5.509419,4.869579 9.367187,7.103516 2.374413,1.374963 2.911168,1.636366 11.974609,5.796875 l 6.566407,3.013672 0.09766,15.998043 c 0.09517,15.84821 0.170884,18.22008 0.681641,21.23829 0.660601,3.90359 2.149574,6.11902 5.451171,8.11328 3.538101,2.13712 6.702995,3.18291 10.494141,3.46484 3.010544,0.22388 4.403882,0.61273 5.763672,1.61328 1.275578,0.9386 1.144942,2.41453 -0.300781,3.41602 -2.005647,1.38937 -6.370851,1.98382 -15.462891,2.10937 -10.58875,0.14622 -19.248377,-0.54251 -21.65625,-1.72265 -0.877462,-0.43006 -1.066356,-0.88903 -0.783203,-1.9004 0.283782,-1.01356 1.313302,-2.09632 3.197265,-3.36523 1.778315,-1.19775 2.15971,-1.56175 2.501954,-2.38086 0.405372,-0.97019 -0.109664,-1.71094 -1.466797,-2.10547 -1.753438,-0.50974 -5.683726,-0.14562 -8.072266,0.74805 -1.989708,0.74445 -3.670473,2.31423 -4.248047,3.96875 -0.3643,1.04361 -0.351776,3.00662 0.02539,4.14453 0.849834,2.5639 2.965825,4.93997 5.976562,6.70899 2.607826,1.53223 6.299576,2.40832 12.564453,2.98242 2.363841,0.21661 13.122556,0.066 16.103516,-0.22461 7.317894,-0.71341 12.706359,-1.91224 16.027344,-3.56836 2.989738,-1.49093 5.038958,-4.85591 4.607418,-7.5625 -0.37533,-2.35403 -2.597498,-4.71425 -6.078121,-6.45703 -1.947264,-0.97501 -3.06341,-1.36978 -7.582031,-2.6836 -7.046232,-2.04873 -10.450746,-3.68105 -11.107422,-5.32226 -1.081713,-2.70345 -1.731132,-14.49976 -1.625,-29.529299 l 0.05078,-7.267579 6.882812,-3.519531 c 8.622602,-4.408522 10.154819,-5.228871 12.583985,-6.734375 11.558666,-7.163632 17.229326,-15.29396 18.859376,-27.039062 0.37222,-2.680908 0.379,-9.458346 0.0117,-12.746094 -0.75259,-6.738475 -2.92797,-16.634868 -4.48242,-20.394531 -1.51404,-3.661888 -3.34578,-5.522324 -7.23047,-7.3457034 C 99.396088,7.0129194 96.818383,6.3170874 92.302734,5.65625 86.750931,4.8437789 80.019936,4.4593599 73.337891,4.4550781 Z m -0.748047,6.5976559 c 11.717887,-0.0046 15.683924,0.220256 20.716797,1.175782 4.098243,0.778079 5.966885,1.795899 5.263671,2.86914 -0.600841,0.916998 -2.995481,1.691989 -8.710937,2.81836 -6.226504,1.227091 -9.373047,2.518842 -9.373047,3.847656 0,1.713767 4.723383,2.271287 13.070313,1.544922 4.785612,-0.416459 8.273059,-0.365034 9.671879,0.142578 1.08802,0.39483 1.98255,1.193031 2.52539,2.253906 0.59058,1.154204 0.99804,3.117825 0.99804,4.808594 3.8e-4,2.492074 -0.35949,3.264641 -1.92187,4.123047 -2.64158,1.451331 -10.353688,3.212249 -17.855471,4.076172 -6.081483,0.700357 -11.380959,1.025078 -16.730468,1.02539 -4.606609,2.16e-4 -7.166475,-0.19692 -11.335938,-0.871093 -6.971463,-1.127239 -10.263219,-0.852201 -11.886719,0.992187 -0.67919,0.771603 -0.894191,1.351029 -1.037109,2.792969 -0.197333,1.991029 0.394459,4.573461 2.386719,10.435547 1.499366,4.411782 2.408203,7.557824 2.408203,8.333984 0,0.60319 -0.368569,1.034314 -1.169922,1.369141 -0.726616,0.303597 -2.199384,0.422432 -2.939453,0.238281 -6.729513,-1.67452 -9.810688,-19.75627 -6.205078,-36.423828 2.10015,-9.708316 4.644073,-12.864823 11.568359,-14.359375 4.415184,-0.952985 8.483745,-1.188737 20.556641,-1.19336 z m 19.789062,37.310547 c 2.194437,0.02122 2.956715,0.0654 2.931641,0.140625 -0.07829,0.234837 -1.375696,0.73956 -5.833985,2.269532 -5.930132,2.035066 -5.506253,1.962911 -12.117187,2.095703 -3.242512,0.06513 -5.921483,0.18573 -6.203125,0.279297 -0.800272,0.265879 -2.133873,0.970594 -2.529297,1.33789 -0.570934,0.530305 -0.690345,0.866959 -0.818359,2.271484 -0.175539,1.92592 -0.229175,1.963556 -4.804688,3.564454 -1.31621,0.46052 -2.486911,0.83789 -2.601562,0.83789 -0.303586,0 -0.375329,-0.642116 -0.494141,-4.332031 -0.0917,-2.848079 -0.07265,-3.365066 0.134766,-3.681641 0.132769,-0.20263 1.603149,-1.349605 3.267578,-2.548828 l 3.025391,-2.18164 14.519531,-0.05078 c 5.702682,-0.02031 9.329,-0.02292 11.523437,-0.002 z M 102.74609,53.4375 c 0.1228,0.0052 0.17408,0.06642 0.23829,0.1875 0.15121,0.285457 0.22671,2.622771 0.19335,5.916016 l -0.0195,2.05664 -2.96484,2.117188 c -1.630479,1.16483 -3.090216,2.182202 -3.244141,2.261718 -0.317229,0.163881 -26.792443,0.356054 -28.267578,0.205079 l -0.9375,-0.09766 0.46875,-0.255859 c 0.55653,-0.304854 5.377827,-2.056998 7.816406,-2.839844 3.13378,-1.006013 3.699388,-1.076035 9.695312,-1.203125 6.196875,-0.131351 6.468584,-0.175591 8.015625,-1.314453 1.023766,-0.753654 1.599998,-1.69132 1.601563,-2.605469 0.0016,-0.993744 0.285916,-1.667992 0.851562,-2.017578 0.533327,-0.329612 4.457901,-1.837405 5.886721,-2.261718 0.34929,-0.103734 0.54322,-0.153593 0.66601,-0.148438 z" />
      <path
         id="path126"
         transform="matrix(0.45424655,0,0,0.45424655,5.2793514,6.2269097)"
         style="fill:#b6296c;stroke-width:0.15635525"
         d="m 111.69531,25.865234 c -0.0442,-0.04419 -0.62848,0.238698 -1.29883,0.628907 -0.67035,0.390211 -1.68696,0.937877 -2.25781,1.216797 l -1.03711,0.507812 0.0156,1.96875 c 0.0244,2.934215 -0.33493,3.753192 -2.08399,4.751953 -3.71934,2.123849 -16.328009,4.361295 -27.986325,4.966797 -5.199031,0.270023 -13.071332,0.112288 -15.792969,-0.316406 -1.160938,-0.182866 -3.059765,-0.479308 -4.220703,-0.660156 -2.544079,-0.396339 -6.07011,-0.467393 -7.349609,-0.148438 -2.998839,0.747552 -3.91603,2.707793 -3.199219,6.839844 0.306292,1.765618 0.525098,2.510288 2.496094,8.501953 0.891095,2.708855 1.744672,5.531992 1.896484,6.273437 0.256927,1.254801 0.25925,1.37634 0.01953,1.742188 -0.426834,0.65143 -1.596889,1.118167 -2.960937,1.183594 -1.040908,0.04992 -1.323767,0.0038 -2.111328,-0.355469 -2.161487,-0.985987 -3.880432,-3.505485 -5.22461,-7.658203 -1.581665,-4.886422 -2.370864,-13.136106 -1.871093,-19.548828 0.105295,-1.352541 0.157282,-2.493109 0.115234,-2.535157 -0.120719,-0.120718 -4.63461,-0.542232 -5.25,-0.490234 -0.524651,0.04432 -0.561504,0.08389 -0.675781,0.75 -0.544216,3.172231 -0.783435,10.950283 -0.433594,14.103516 1.223866,11.031104 5.954666,19.411423 14.642578,25.941406 3.474083,2.611179 6.870574,4.416391 16.863281,8.966797 3.525813,1.605557 6.499926,3.034212 6.607422,3.173828 0.153177,0.198918 0.19375,3.45276 0.195313,15.039058 8.36e-4,8.13163 0.0713,15.97949 0.15625,17.44141 0.399457,6.87533 1.344333,9.40657 4.376953,11.72266 3.202624,2.44592 7.357211,3.98564 11.847656,4.39062 3.489896,0.31475 4.894287,0.74951 6.091797,1.88867 0.756255,0.71941 0.933592,1.26451 0.681641,2.10547 -0.229028,0.76442 -1.355485,1.69676 -2.632813,2.17774 -3.141959,1.18309 -10.013698,1.66643 -20.142578,1.41601 -11.529279,-0.28504 -16.374872,-1.07 -16.814453,-2.7207 -0.294574,-1.10618 0.772202,-2.85397 2.451172,-4.01563 3.129534,-2.16528 3.556619,-2.59569 3.472656,-3.51171 -0.08096,-0.88329 -1.559979,-1.49024 -3.628906,-1.49024 -1.236461,0 -4.178619,0.50298 -5.490235,0.93945 -1.177706,0.39192 -2.641802,1.30492 -3.248047,2.02539 -2.156681,2.56312 -1.719768,6.2598 1.13086,9.56446 0.741751,0.85989 2.609179,2.31171 3.953125,3.07422 2.526927,1.43368 7.417772,2.46188 13.494141,2.83593 3.029099,0.18647 10.359149,0.0633 13.759765,-0.23046 7.521752,-0.6497 13.343837,-1.85926 16.652344,-3.46094 1.914555,-0.92685 3.274293,-2.25045 4.164063,-4.05078 0.55935,-1.13174 0.60352,-1.32341 0.60352,-2.56055 -6e-5,-1.11578 -0.0667,-1.47772 -0.40626,-2.19531 -0.90245,-1.90726 -2.818594,-3.59033 -5.691401,-5 -2.137049,-1.04864 -3.493639,-1.52808 -7.582031,-2.67188 -5.034723,-1.40854 -8.806285,-2.98204 -10.214844,-4.26367 -0.480964,-0.43762 -0.791904,-0.89016 -0.949219,-1.37695 -0.636412,-1.9694 -1.111329,-6.5273 -1.339844,-12.87696 -0.173826,-4.83013 -0.249203,-23.577835 -0.0957,-23.826168 0.05316,-0.08602 3.102901,-1.686037 6.777344,-3.554687 12.130694,-6.169095 14.972223,-7.875678 19.501958,-11.714844 7.14227,-6.053466 10.86835,-13.083794 12.05273,-22.74414 0.31755,-2.589968 0.23534,-8.775941 -0.16016,-12.039063 -0.45486,-3.752968 -1.57721,-9.829157 -1.86914,-10.121094 z M 90.777344,48.064453 c 2.641016,0.0066 4.304238,0.03011 4.484375,0.07031 1.488986,0.33228 0.682702,0.721869 -6.410157,3.095703 -2.40787,0.805866 -4.940942,1.556812 -5.628906,1.667969 -0.835484,0.134992 -2.549243,0.189725 -5.160156,0.166015 -4.985762,-0.0453 -6.498105,0.10983 -7.966797,0.816406 -1.626533,0.782509 -1.806998,1.032285 -2.035156,2.814453 -0.134273,1.048841 -0.279298,1.592964 -0.488281,1.824219 -0.442689,0.489886 -1.448488,0.953829 -4.148438,1.914063 -1.336241,0.475233 -2.606112,0.907178 -2.820312,0.960937 -0.775997,0.194762 -0.829755,-0.07658 -0.890625,-4.457031 l -0.05469,-4.017578 3.277344,-2.359375 3.275391,-2.361328 14.21289,-0.101563 c 4.093552,-0.02944 7.7125,-0.03985 10.353516,-0.0332 z m 11.988276,5.121094 c 0.28721,0 0.41631,0.109401 0.50586,0.429687 0.0661,0.236489 0.1211,2.14974 0.1211,4.251954 v 3.822265 l -3.26172,2.335938 -3.261719,2.333984 -14.675782,0.08203 c -13.681568,0.07569 -14.682791,0.06282 -14.777343,-0.183594 -0.05583,-0.145385 -0.06341,-0.303747 -0.01563,-0.351562 0.168366,-0.168369 5.06907,-1.949076 8.099609,-2.943359 1.850605,-0.607166 3.584903,-1.074113 4.376953,-1.177735 0.721672,-0.0944 3.388919,-0.207072 5.925781,-0.25 5.529881,-0.09357 6.200891,-0.186324 7.5,-1.035156 1.24207,-0.811575 1.675361,-1.474259 1.814454,-2.779297 0.161093,-1.511551 0.37831,-1.824841 1.68164,-2.423828 1.558596,-0.716316 5.500422,-2.111328 5.966792,-2.111328 z" />
      <path
         id="path124"
         transform="matrix(0.45424655,0,0,0.45424655,5.2793514,6.2269097)"
         style="fill:#a6175b;stroke-width:0.15635525"
         d="m 113.39844,48.650391 c -0.0396,0 -0.79449,0.208621 -1.67774,0.46289 -9.49212,2.732635 -21.199569,4.268384 -38.269528,5.019531 -2.689826,0.118372 -3.758987,0.221777 -3.988281,0.382813 -1.034443,0.726509 -1.041684,0.739613 -1.248047,2.351563 -0.184581,1.441785 -0.230124,1.571594 -0.701172,1.964843 -0.529376,0.441941 -2.236794,1.141341 -5.431641,2.22461 -1.500233,0.508686 -1.949955,0.606685 -2.099609,0.457031 -0.295256,-0.295258 -0.422999,-1.606065 -0.435547,-4.439453 l -0.01172,-2.59961 -3.558594,-0.09961 c -1.956395,-0.05526 -4.274454,-0.144041 -5.152343,-0.195312 l -1.595703,-0.0918 0.386718,1.228515 c 0.674621,2.138559 1.471798,5.104947 1.570313,5.847656 0.08256,0.622389 0.04098,0.779984 -0.318359,1.207032 -0.961301,1.142432 -3.645873,1.485867 -5.248047,0.671875 -2.152111,-1.093393 -3.84452,-3.574418 -5.177735,-7.59375 -0.257411,-0.776035 -0.520554,-1.497736 -0.585937,-1.603516 -0.119484,-0.193327 -5.89484,-0.624706 -6.066407,-0.453125 -0.133174,0.133172 0.740718,3.048666 1.4375,4.796875 0.866961,2.175158 1.458844,3.328255 2.763672,5.386719 3.321179,5.239399 7.733831,9.337411 13.914063,12.919922 2.462819,1.427625 3.603511,1.978289 12.320312,5.958984 3.396819,1.551224 6.283105,2.921295 6.41211,3.042969 0.204477,0.192895 0.245863,2.358329 0.326172,16.906253 0.09527,17.25271 0.130278,18.2436 0.783203,21.375 0.63491,3.04507 1.908302,4.84505 4.753906,6.72265 3.092065,2.04022 6.6428,3.2418 10.630859,3.59961 1.375927,0.12346 2.854725,0.32179 3.285157,0.43946 3.495962,0.95574 4.796294,3.13324 2.896484,4.8496 -1.06392,0.96128 -2.267178,1.43858 -4.773438,1.88672 -3.364903,0.60169 -7.641068,0.82107 -14.853515,0.76368 -10.041963,-0.0799 -16.34739,-0.729 -18.689453,-1.92383 -0.794313,-0.40523 -1.011516,-1.08933 -0.689453,-2.17383 0.344097,-1.1587 1.305292,-2.2286 3.039062,-3.38281 1.971639,-1.31258 2.852102,-2.23747 2.785156,-2.92969 -0.04132,-0.42724 -0.163986,-0.55953 -0.830078,-0.89258 -0.718979,-0.35944 -0.945102,-0.39065 -2.814453,-0.3789 -2.426396,0.0152 -5.010397,0.54132 -6.460937,1.31445 -1.168995,0.62307 -2.263218,1.67793 -2.804688,2.70508 -0.393804,0.74702 -0.429687,0.95996 -0.429687,2.54687 0,1.71983 0.0053,1.74062 0.65625,3.04883 1.388845,2.79104 4.095539,5.13791 7.455078,6.4668 2.184807,0.86421 6.650999,1.63346 11.355468,1.95507 2.814777,0.19243 10.568485,0.066 14.027344,-0.22851 9.702046,-0.82613 16.406328,-2.58827 18.796875,-4.94141 4.710749,-4.63702 2.661059,-9.579 -5.335937,-12.86718 -0.747427,-0.30741 -3.069732,-1.04726 -5.160156,-1.64454 -7.961696,-2.27481 -11.245539,-3.92476 -11.908204,-5.97656 -1.047048,-3.24199 -1.507812,-11.51116 -1.507812,-27.117186 -1.56e-4,-8.904035 0.01839,-9.568132 0.273437,-9.78711 0.150491,-0.129211 3.087527,-1.662329 6.527344,-3.40625 12.336052,-6.254145 15.022598,-7.865694 19.718747,-11.832031 5.90077,-4.983721 9.62416,-11.105422 11.15821,-18.347656 0.45964,-2.170027 0.67747,-3.597656 0.55078,-3.597656 z M 102.8457,53.0625 c 0.53053,0.04335 0.54999,0.06827 0.65039,0.826172 0.057,0.429976 0.10971,2.335967 0.11719,4.234375 0.0134,3.390209 0.008,3.455976 -0.33789,3.765625 -0.46745,0.418902 -5.721334,4.166483 -6.199218,4.421875 -0.293572,0.156879 -3.521694,0.216738 -14.931641,0.277344 -12.973074,0.06892 -14.592417,0.05144 -14.871093,-0.164063 -0.281596,-0.217745 -0.288636,-0.266359 -0.07227,-0.486328 0.631406,-0.641845 10.642627,-4.042996 12.68164,-4.308594 0.719274,-0.09369 3.453315,-0.20733 6.076172,-0.251953 2.62286,-0.04461 5.120806,-0.153609 5.550782,-0.244141 0.940101,-0.197905 2.053596,-0.873228 2.791015,-1.689453 0.471531,-0.521934 0.554923,-0.737606 0.640625,-1.669921 0.117564,-1.278763 0.412924,-1.93517 1.035156,-2.302735 0.466088,-0.275315 3.218141,-1.363984 5.226558,-2.068359 0.60205,-0.21111 1.3416,-0.364434 1.64258,-0.339844 z" />
    </g>
  </g>
</svg>
