<?xml version="1.0" encoding="UTF-8" standalone="no"?>
<!-- Created with Inkscape (http://www.inkscape.org/) -->

<svg
   xmlns:dc="http://purl.org/dc/elements/1.1/"
   xmlns:cc="http://creativecommons.org/ns#"
   xmlns:rdf="http://www.w3.org/1999/02/22-rdf-syntax-ns#"
   xmlns:svg="http://www.w3.org/2000/svg"
   xmlns="http://www.w3.org/2000/svg"
   xmlns:sodipodi="http://sodipodi.sourceforge.net/DTD/sodipodi-0.dtd"
   xmlns:inkscape="http://www.inkscape.org/namespaces/inkscape"
   width="210mm"
   height="297mm"
   viewBox="0 0 210 297"
   version="1.1"
   id="svg8"
   inkscape:export-filename="C:\Users\Taribo\Documents\GW logo copa.png"
   inkscape:export-xdpi="96"
   inkscape:export-ydpi="96"
   sodipodi:docname="goodwines letras.svg"
   inkscape:version="0.92.3 (2405546, 2018-03-11)">
  <defs
     id="defs2" />
  <sodipodi:namedview
     id="base"
     pagecolor="#ffffff"
     bordercolor="#666666"
     borderopacity="1.0"
     inkscape:pageopacity="0.0"
     inkscape:pageshadow="2"
     inkscape:zoom="2"
     inkscape:cx="102.50383"
     inkscape:cy="1043.7188"
     inkscape:document-units="mm"
     inkscape:current-layer="g118"
     showgrid="false"
     inkscape:window-width="1920"
     inkscape:window-height="1017"
     inkscape:window-x="-8"
     inkscape:window-y="-8"
     inkscape:window-maximized="1" />
  <metadata
     id="metadata5">
    <rdf:RDF>
      <cc:Work
         rdf:about="">
        <dc:format>image/svg+xml</dc:format>
        <dc:type
           rdf:resource="http://purl.org/dc/dcmitype/StillImage" />
        <dc:title></dc:title>
      </cc:Work>
    </rdf:RDF>
  </metadata>
  <g
     inkscape:label="Capa 1"
     inkscape:groupmode="layer"
     id="layer1">
    <g
       id="g118"
       transform="translate(-56.025521,-7.6067708)">
      <path
         style="fill:#d24b8c;stroke-width:0.07102383"
         d="M 7.4367117,73.954201 C 7.3838515,73.816449 7.3976927,36.417006 7.45695,19.271055 l 0.042955,-12.4291713 3.844275,-0.018363 3.844274,-0.018363 0.04874,14.0100593 c 0.02681,7.705532 0.03874,22.831218 0.02652,33.612636 l -0.02221,19.602579 -3.880724,0.01836 c -3.492672,0.01652 -3.8850588,0.0071 -3.9240665,-0.09459 z m 2.7774703,-3.99369 c 0.05799,-0.03685 0.09302,-0.334264 0.106536,-0.904467 l 0.02014,-0.849568 1.313941,-0.03551 1.313941,-0.03551 0.02165,-0.337363 0.02165,-0.337363 -1.264565,-0.0011 c -0.69551,-5.68e-4 -1.303442,-0.02579 -1.35096,-0.05599 -0.05799,-0.03685 -0.09302,-0.334263 -0.106535,-0.904466 L 10.26984,65.649605 H 9.9502273 9.63062 l -0.018843,2.086616 c -0.013368,1.480308 0.00464,2.114907 0.061964,2.183983 0.087528,0.105464 0.40109,0.128842 0.540441,0.04029 z m 2.776398,-5.074399 -0.02184,-0.301851 -0.797758,-0.02007 c -0.706477,-0.01777 -0.806236,-0.03591 -0.871852,-0.158516 -0.04503,-0.08415 -0.06642,-0.577331 -0.05453,-1.257459 0.01643,-0.939535 0.03706,-1.122371 0.128654,-1.139949 0.06,-0.01151 0.426856,0.217172 0.815239,0.508191 0.388382,0.291019 0.73081,0.513884 0.760953,0.495255 0.0887,-0.05482 0.06269,-0.627723 -0.03398,-0.748229 -0.04883,-0.06087 -0.433232,-0.370607 -0.854228,-0.688301 -0.603687,-0.455556 -0.815734,-0.577625 -1.003394,-0.577625 -0.413116,0 -0.429215,0.06445 -0.468408,1.875096 l -0.03551,1.640584 -0.355119,0.03551 c -0.3271695,0.03272 -0.3569341,0.05136 -0.3781717,0.236827 -0.047048,0.410864 -0.081236,0.402387 1.6229427,0.402387 h 1.568838 z m -0.597455,-4.444356 c 0.27523,-0.159165 0.464721,-0.425592 0.543124,-0.763636 0.03554,-0.15323 0.06538,-0.911575 0.06631,-1.685211 l 0.0017,-1.406612 -0.337363,0.02165 -0.337363,0.02165 -0.02184,0.301852 c -0.01268,0.175222 -0.05737,0.301259 -0.106536,0.30044 -0.04658,-7.74e-4 -0.288213,-0.16058 -0.536954,-0.355119 -0.490897,-0.383927 -0.710586,-0.433781 -0.932707,-0.211661 -0.131978,0.131978 -0.142019,0.236454 -0.141651,1.473745 2.13e-4,0.732433 0.03415,1.453253 0.07541,1.601822 0.206417,0.743329 1.057613,1.088703 1.72788,0.701086 z M 11.43184,59.796591 c -0.159705,-0.129166 -0.168778,-0.183573 -0.190948,-1.145067 -0.01465,-0.635408 0.0041,-1.036825 0.05058,-1.083316 0.07831,-0.07831 0.433138,0.133988 0.807223,0.482963 0.187351,0.174775 0.195316,0.210545 0.195316,0.877188 0,0.634627 -0.01428,0.708396 -0.164381,0.849413 -0.202827,0.190545 -0.476343,0.197922 -0.697793,0.01882 z m 0.933484,-6.936259 c 0.341438,-0.199411 0.55047,-0.537726 0.602517,-0.975166 0.02417,-0.20311 0.03425,-0.991165 0.02242,-1.751233 l -0.02152,-1.381942 -0.426143,-0.345744 c -0.64745,-0.525299 -0.982247,-0.7048 -1.208602,-0.647989 -0.354517,0.08898 -0.394035,0.331073 -0.372918,2.284557 l 0.019,1.757156 h 0.319607 0.319607 l 0.01924,-1.489438 c 0.01059,-0.819191 0.04906,-1.519255 0.0855,-1.555697 0.041,-0.041 0.162288,0.007 0.318119,0.125843 l 0.25186,0.192103 v 1.482731 1.482731 l -0.187138,0.147203 c -0.156954,0.12346 -0.287424,0.147202 -0.808906,0.147202 -1.009158,0 -0.949919,0.136316 -0.992624,-2.284144 l -0.03551,-2.012798 H 9.9502273 9.63062 v 2.059692 c 0,2.017224 0.00332,2.06503 0.1610544,2.318681 0.3142546,0.505351 0.6463076,0.630274 1.6150686,0.607611 0.566009,-0.01324 0.761238,-0.0461 0.958581,-0.161359 z m 0.02744,-5.627264 c 0.276249,-0.161814 0.465224,-0.427944 0.543486,-0.765382 0.08857,-0.381899 0.0841,-2.277492 -0.0061,-2.602424 -0.14533,-0.523274 -0.629902,-0.907759 -1.144065,-0.907759 -0.348406,0 -0.814371,0.259193 -0.998604,0.555474 -0.147452,0.237129 -0.164737,0.362653 -0.186851,1.356989 -0.03516,1.581088 0.0026,1.798236 0.377759,2.173418 0.168116,0.168114 0.381103,0.321319 0.473304,0.340453 0.261908,0.05435 0.714795,-0.0182 0.941115,-0.150769 z m -0.89875,-0.600081 c -0.20856,-0.158374 -0.265359,-0.471145 -0.265247,-1.460613 1.42e-4,-1.194058 0.08985,-1.455936 0.510767,-1.490923 0.190331,-0.01582 0.302375,0.01828 0.408387,0.124292 0.136199,0.1362 0.146094,0.229432 0.146094,1.376631 0,1.194433 -0.0048,1.235067 -0.164381,1.384965 -0.183204,0.17211 -0.458042,0.200496 -0.63562,0.06565 z m 0.912329,-4.247255 c 0.129597,-0.0801 0.309153,-0.263869 0.399014,-0.408387 0.155981,-0.250854 0.163384,-0.325744 0.163384,-1.65291 0,-1.386328 -4.97e-4,-1.390938 -0.188977,-1.675716 -0.223047,-0.337047 -0.569893,-0.520836 -0.982916,-0.520836 -0.413024,0 -0.759869,0.183789 -0.982916,0.520836 -0.188457,0.284778 -0.188977,0.289388 -0.188977,1.675716 0,1.556106 0.04199,1.718506 0.529266,2.04688 0.317816,0.214177 0.917728,0.221085 1.252122,0.01442 z m -0.942898,-0.665078 -0.199276,-0.171492 v -1.219677 -1.219677 l 0.199276,-0.171356 c 0.253144,-0.217675 0.436418,-0.216844 0.656238,0.003 0.171493,0.171493 0.174332,0.1941 0.174332,1.388193 0,1.194094 -0.0028,1.216701 -0.174332,1.388193 -0.219858,0.219859 -0.403138,0.220651 -0.656238,0.0028 z m 0.894725,-4.166805 c 0.567478,-0.345958 0.674476,-0.72347 0.63341,-2.234816 -0.03124,-1.149737 -0.09262,-1.372647 -0.456835,-1.65914 -0.301318,-0.237017 -0.668322,-0.295948 -1.711816,-0.274873 L 9.8436925,33.4048 v 0.319607 0.319607 l 1.0896015,0.03551 c 1.431271,0.04665 1.360721,-0.03068 1.360721,1.491501 0,0.983256 -0.01606,1.140475 -0.13098,1.282397 -0.172894,0.213516 -0.532438,0.216425 -0.743008,0.006 -0.144105,-0.143997 -0.157694,-0.23622 -0.180203,-1.223004 l -0.02435,-1.067265 -0.295262,0.02152 -0.295261,0.02152 v 1.141802 c 0,1.116234 0.0042,1.148164 0.188159,1.425895 0.337727,0.50992 1.042303,0.680448 1.545056,0.373949 z m -1.170798,-5.548281 c 0.784437,-0.437541 1.525155,-0.892981 1.64604,-1.01209 0.299352,-0.294955 0.360962,-0.65559 0.181362,-1.061605 -0.108695,-0.245722 -0.226336,-0.363632 -0.553596,-0.554858 -0.228563,-0.133555 -0.423603,-0.288703 -0.433423,-0.344773 -0.01051,-0.05999 0.169603,-0.211218 0.437616,-0.367448 0.387077,-0.225634 0.47398,-0.31397 0.578741,-0.588284 0.104983,-0.274893 0.110376,-0.365825 0.03635,-0.612893 -0.0478,-0.159561 -0.161902,-0.358263 -0.253549,-0.441562 -0.22085,-0.200731 -2.9868031,-1.749486 -3.1244437,-1.749486 -0.079131,0 -0.1070769,0.07937 -0.1062758,0.301851 5.682e-4,0.166018 0.024569,0.336208 0.053268,0.3782 0.028699,0.04199 0.6114935,0.389235 1.2950975,0.77165 1.365822,0.764055 1.4915,0.85221 1.4915,1.046185 0,0.138719 -0.18287,0.269803 -0.890624,0.63841 l -0.428968,0.223412 -0.695879,-0.401771 c -0.382734,-0.220974 -0.7250399,-0.383749 -0.7606803,-0.361722 -0.035641,0.02203 -0.064802,0.182691 -0.064802,0.357029 0,0.300775 0.017248,0.327919 0.3373632,0.53093 0.1855501,0.117672 0.3373631,0.250695 0.3373631,0.295606 0,0.04491 -0.143823,0.165557 -0.3196071,0.268101 -0.2916871,0.170157 -0.3215562,0.213289 -0.3419187,0.493741 -0.012271,0.169014 0.00371,0.332805 0.035512,0.363982 0.031803,0.03118 0.3756968,-0.122426 0.7642078,-0.341337 l 0.706383,-0.398021 0.517421,0.277091 c 1.138943,0.60993 1.132911,0.627762 -0.525039,1.552272 -0.694706,0.387383 -1.319033,0.751895 -1.3873935,0.810026 -0.1734224,0.147471 -0.1685956,0.722891 0.00607,0.722891 0.019611,0 0.6774695,-0.357987 1.4619075,-0.795527 z m -1.038277,-7.173347 c 0.09846,-0.09846 0.111008,-0.403339 0.02236,-0.543218 -0.113574,-0.179216 -0.3260581,-0.06289 -0.3505258,0.191891 -0.038454,0.400436 0.1148875,0.564602 0.3281628,0.351327 z M 12.96874,24.56233 v -0.319607 h -1.171893 -1.171893 l -0.02276,0.237589 c -0.04299,0.448807 -0.06076,0.442629 1.210859,0.421149 l 1.155688,-0.01952 z m 0.03551,-1.09327 c 0,-0.380101 -0.03643,-0.39823 -0.80025,-0.39823 -0.493191,0 -0.599084,-0.0221 -0.739941,-0.154428 -0.156755,-0.147264 -0.164381,-0.200897 -0.164381,-1.156091 0,-1.32225 -0.0035,-1.316989 0.874069,-1.31845 0.359119,-5.69e-4 0.694967,-0.02774 0.74633,-0.06031 0.06035,-0.03827 0.08548,-0.1698 0.07102,-0.371787 l -0.02236,-0.312568 -0.490539,-0.02126 c -0.981563,-0.04253 -1.561891,0.215699 -1.782412,0.793125 -0.09775,0.255946 -0.115,0.510607 -0.09512,1.403943 0.02239,1.006162 0.03761,1.112712 0.195065,1.366009 0.257642,0.414458 0.597686,0.538596 1.480525,0.540488 l 0.727994,0.0016 z m -0.529296,-4.419825 c 0.09442,-0.06187 0.244149,-0.229031 0.33273,-0.371476 0.153068,-0.246148 0.162175,-0.339315 0.183649,-1.878871 l 0.0226,-1.619882 -0.342202,0.02185 -0.342202,0.02184 -0.02184,0.301851 c -0.01201,0.166019 -0.05796,0.301852 -0.102116,0.301852 -0.04415,0 -0.260934,-0.141934 -0.481738,-0.315407 -0.533239,-0.418936 -0.718407,-0.462153 -0.957165,-0.223394 l -0.185043,0.185042 0.02167,1.521336 c 0.02366,1.661465 0.03388,1.703641 0.49643,2.048986 0.358866,0.267932 0.971629,0.270728 1.375237,0.0063 z M 11.410243,18.367453 C 11.322708,18.24248 11.29968,17.998398 11.29968,17.19556 c 0,-0.59166 0.02805,-1.014042 0.06734,-1.014042 0.03704,0 0.260761,0.160969 0.497167,0.357709 l 0.429831,0.357708 v 0.656334 c 0,0.805112 -0.08538,0.972035 -0.497167,0.972035 -0.204739,0 -0.304599,-0.04077 -0.386604,-0.157851 z m 1.577743,-4.925752 c 0.01735,-1.221436 0.0069,-1.365929 -0.106536,-1.467335 -0.268601,-0.2402 -0.485819,-0.1917 -1.022976,0.228407 -0.248742,0.194539 -0.476229,0.354343 -0.505526,0.355119 -0.0293,7.74e-4 -0.05376,-0.390109 -0.05435,-0.868632 -5.69e-4,-0.478523 -0.02782,-0.912204 -0.0605,-0.963736 -0.03722,-0.05871 -0.162792,-0.08523 -0.336276,-0.07102 l -0.276865,0.02267 -0.01935,1.294589 c -0.01822,1.218649 -0.01093,1.303014 0.124291,1.438232 0.224889,0.224889 0.449164,0.175152 0.953598,-0.211475 0.254828,-0.195316 0.496444,-0.355119 0.536923,-0.355119 0.04683,0 0.0736,0.320772 0.0736,0.881989 0,0.485094 0.02003,0.934184 0.04451,0.997977 0.03328,0.08672 0.118414,0.110589 0.337363,0.09459 l 0.292854,-0.0214 z m 21.891605,60.338885 c -2.845799,-0.26078 -4.522261,-0.658762 -5.706857,-1.354773 -1.367617,-0.803545 -2.329231,-1.882801 -2.715265,-3.047444 -0.171329,-0.51689 -0.176582,-1.408075 -0.0111,-1.882131 0.262361,-0.751558 1.025913,-1.465048 1.929731,-1.80321 1.084986,-0.405945 2.869682,-0.571373 3.666175,-0.339826 0.616473,0.179214 0.851128,0.515682 0.666989,0.956387 -0.155463,0.372076 -0.329263,0.537376 -1.137054,1.081449 -0.855784,0.576398 -1.323248,1.068605 -1.452155,1.529015 -0.128621,0.459387 -0.04253,0.668194 0.356054,0.863545 1.093768,0.536077 5.026897,0.848971 9.8368,0.782552 4.130028,-0.05703 6.113298,-0.327763 7.024356,-0.95888 0.656715,-0.454924 0.715466,-1.124853 0.136039,-1.551207 -0.61768,-0.454498 -1.249891,-0.631622 -2.61742,-0.733319 C 43.133769,67.19468 41.69548,66.719969 40.08831,65.749189 38.588571,64.843305 37.912446,63.836871 37.61237,62.063677 37.380363,60.69269 37.345761,59.615497 37.302528,52.416506 l -0.04364,-7.267111 -2.983,-1.369326 c -4.117037,-1.889897 -4.361231,-2.008077 -5.4398,-2.632649 -1.752378,-1.014758 -2.992224,-1.955158 -4.254952,-3.227302 -2.759188,-2.779761 -4.256357,-6.079696 -4.690895,-10.339275 -0.108421,-1.062809 -0.0872,-3.743469 0.03964,-5.00718 0.205063,-2.043107 0.664458,-4.595528 1.238122,-6.879065 0.680026,-2.706927 1.262261,-3.889893 2.330606,-4.735246 0.454746,-0.359828 1.808919,-1.0522466 2.68602,-1.373421 3.76346,-1.3780936 14.297689,-1.773739 21.022722,-0.7895731 2.051218,0.3001831 3.22265,0.6161131 4.489793,1.2108791 1.764608,0.828264 2.596496,1.67349 3.284241,3.33689 0.706105,1.707814 1.693947,6.202982 2.035806,9.263911 0.166792,1.493448 0.164278,4.571786 -0.0048,5.789579 -0.740445,5.335172 -3.31682,9.028926 -8.567306,12.282981 -1.10344,0.68387 -1.799083,1.056124 -5.71587,3.05868 l -3.126597,1.59855 -0.02332,3.302095 c -0.04821,6.827116 0.246552,12.185146 0.737916,13.413177 0.298293,0.745516 1.845377,1.486622 5.046101,2.417253 2.052568,0.596798 2.559593,0.776279 3.444131,1.219172 1.581061,0.791651 2.590445,1.864084 2.760937,2.933394 0.196026,1.22946 -0.73538,2.757729 -2.093456,3.434979 -1.508546,0.752286 -3.955814,1.297351 -7.279942,1.621413 -1.354091,0.132007 -6.24169,0.19967 -7.315454,0.101275 z M 49.318032,36.196852 c 0.06992,-0.03612 0.733108,-0.498597 1.473745,-1.027717 l 1.346604,-0.962035 0.0095,-0.93383 c 0.01515,-1.495945 -0.01984,-2.558059 -0.08853,-2.687727 -0.05828,-0.110004 -0.09359,-0.111487 -0.410916,-0.01725 -0.649037,0.192743 -2.431444,0.877608 -2.673706,1.027333 -0.256943,0.158798 -0.38637,0.465302 -0.387101,0.916707 -7.11e-4,0.415249 -0.262377,0.840968 -0.727419,1.183313 -0.702738,0.517324 -0.826036,0.537548 -3.640945,0.597214 -2.723628,0.05773 -2.979968,0.08955 -4.403477,0.546528 -1.107716,0.355605 -3.298389,1.151169 -3.551191,1.289648 l -0.213072,0.116716 0.426143,0.04361 c 0.670075,0.06858 12.696305,-0.01807 12.840405,-0.09251 z M 27.814038,34.749123 c 0.364012,-0.152094 0.531361,-0.347983 0.531361,-0.62198 0,-0.352568 -0.41285,-1.781068 -1.093932,-3.785105 -0.904977,-2.662832 -1.173222,-3.836452 -1.083584,-4.74087 0.06492,-0.654996 0.162589,-0.917983 0.471109,-1.268481 0.737469,-0.837807 2.232883,-0.962583 5.399646,-0.450541 1.893964,0.306241 3.056691,0.395533 5.149227,0.395435 2.429996,-1.42e-4 4.837057,-0.147643 7.59955,-0.465778 3.407659,-0.392434 6.910626,-1.191997 8.110552,-1.851259 0.709706,-0.389928 0.873238,-0.740699 0.873068,-1.872715 0,-0.768026 -0.185387,-1.660145 -0.453658,-2.184438 -0.246581,-0.481899 -0.652546,-0.844269 -1.146779,-1.023619 -0.635408,-0.230581 -2.21985,-0.253935 -4.393698,-0.06476 -3.791564,0.329949 -5.936974,0.07616 -5.936974,-0.702313 0,-0.603609 1.429433,-1.190373 4.257801,-1.747775 2.596226,-0.51165 3.683672,-0.863448 3.956602,-1.279991 0.31943,-0.487516 -0.528836,-0.950077 -2.390449,-1.303517 -2.286165,-0.434044 -4.087847,-0.536327 -9.410657,-0.53425 -5.484071,0.0021 -7.332553,0.109507 -9.338135,0.542397 -3.145333,0.678895 -4.300333,2.112704 -5.254319,6.522673 -1.637836,7.571181 -0.238912,15.784993 2.817946,16.545638 0.336174,0.08365 1.00526,0.02916 1.335323,-0.108748 z m 6.085028,-1.120968 c 2.078411,-0.727202 2.102112,-0.744795 2.18185,-1.619635 0.05815,-0.638001 0.11309,-0.790086 0.372435,-1.030975 0.17962,-0.166843 0.785041,-0.487432 1.148562,-0.608207 0.127935,-0.0425 1.344637,-0.09729 2.817537,-0.126877 3.002994,-0.06032 2.810604,-0.02706 5.504346,-0.951482 2.02516,-0.694982 2.614501,-0.924247 2.650063,-1.030921 0.02278,-0.06834 -1.385448,-0.08195 -6.566295,-0.0635 l -6.595294,0.0235 -1.374656,0.990442 c -0.756061,0.544743 -1.424,1.065751 -1.48431,1.157795 -0.09422,0.143803 -0.102832,0.379222 -0.06118,1.672952 0.05397,1.676131 0.08729,1.967253 0.225193,1.967253 0.05208,0 0.583861,-0.171155 1.181745,-0.380345 z"
         id="path128"
         inkscape:connector-curvature="0" />
      <path
         style="fill:#b6296c;stroke-width:0.07102383"
         d="m 7.5531731,74.019228 c -0.0708,-0.02883 -0.08878,-5.383412 -0.08878,-26.439336 0,-14.521754 0.021255,-29.620533 0.047232,-33.552843 l 0.047232,-7.1496534 h 3.7794899 3.779489 l 0.04843,4.9894244 c 0.02664,2.744183 0.03848,17.853616 0.02632,33.576517 l -0.02211,28.587094 -3.764263,0.01247 c -2.0703445,0.0069 -3.8042138,-0.0038 -3.8530426,-0.02367 z m 2.7800859,-4.113989 c 0.02371,-0.06179 0.04311,-0.461298 0.04311,-0.887798 V 68.241988 H 11.6523 c 1.188784,0 1.280951,-0.0094 1.349452,-0.137378 0.08629,-0.161243 0.09499,-0.50013 0.01602,-0.62443 -0.03953,-0.06223 -0.419299,-0.09263 -1.330609,-0.106536 l -1.275287,-0.01945 -0.03551,-0.831296 c -0.02008,-0.469944 -0.07003,-0.865681 -0.114932,-0.910399 -0.04368,-0.04351 -0.203485,-0.06893 -0.3551191,-0.0565 l -0.2756989,0.0226 -0.018768,2.219495 -0.018767,2.219495 h 0.3485316 c 0.2522974,0 0.3604354,-0.03102 0.3916424,-0.112345 z m 2.715354,-4.833785 c 0.02589,-0.103144 0.01783,-0.270938 -0.0179,-0.372876 -0.06386,-0.182181 -0.07887,-0.185947 -0.880245,-0.220853 l -0.815273,-0.03551 -0.01957,-1.166523 c -0.01077,-0.641588 0.0074,-1.193532 0.04044,-1.226541 0.03301,-0.03301 0.405247,0.199903 0.827196,0.517582 0.589332,0.4437 0.781397,0.555155 0.828512,0.48079 0.07172,-0.113207 0.07486,-0.540818 0.0052,-0.714227 -0.08127,-0.202435 -1.71454,-1.406761 -1.907808,-1.406761 -0.523447,0 -0.59079,0.235546 -0.59079,2.066398 v 1.477011 l -0.337363,0.02165 c -0.3358961,0.02155 -0.3374615,0.02284 -0.3598517,0.295456 -0.04045,0.492491 -0.1108533,0.471942 1.6169417,0.471942 h 1.563401 z m -0.726169,-4.528016 c 0.327648,-0.136899 0.596735,-0.517768 0.681465,-0.96455 0.08581,-0.452455 0.09382,-2.83944 0.01,-2.97166 -0.03827,-0.06035 -0.169801,-0.08548 -0.371787,-0.07102 -0.305422,0.02185 -0.31338,0.02873 -0.34808,0.300907 -0.01953,0.153199 -0.07016,0.289928 -0.112512,0.303843 -0.04235,0.01391 -0.234115,-0.09881 -0.426143,-0.250506 -0.529939,-0.418627 -0.644495,-0.465697 -0.887958,-0.364851 -0.317935,0.131693 -0.368807,0.42206 -0.338869,1.934192 l 0.02612,1.319152 0.21271,0.300108 c 0.369199,0.520892 0.981927,0.703869 1.555083,0.464389 z M 11.410243,59.703325 C 11.323163,59.579 11.29968,59.33764 11.29968,58.566943 c 0,-0.670297 0.02486,-0.97853 0.07892,-0.97853 0.07567,0 0.748957,0.524564 0.864768,0.67375 0.03074,0.0396 0.04672,0.348347 0.03551,0.686105 -0.01609,0.484892 -0.04885,0.645539 -0.155681,0.763506 -0.186259,0.205672 -0.566135,0.20117 -0.712959,-0.0084 z m 0.912307,-6.768423 c 0.357348,-0.169573 0.59569,-0.503833 0.681359,-0.955564 0.09484,-0.500105 0.09314,-3.024489 -0.0022,-3.20256 -0.04044,-0.07556 -0.348941,-0.34513 -0.685557,-0.599034 -0.675397,-0.509439 -0.964577,-0.584604 -1.229584,-0.319596 -0.135033,0.135032 -0.142048,0.236746 -0.142048,2.059691 v 1.917643 h 0.34752 c 0.251375,0 0.359448,-0.03108 0.390631,-0.112344 0.02371,-0.06179 0.04311,-0.748945 0.04311,-1.527013 0,-0.817388 0.02769,-1.414667 0.06557,-1.414667 0.03607,0 0.165732,0.08428 0.288146,0.187281 l 0.222571,0.187281 -0.02181,1.40348 c -0.02736,1.761183 0.0062,1.702125 -0.968288,1.702125 -1.004661,0 -0.93565,0.162567 -0.93565,-2.20405 0,-2.191992 0.0083,-2.154981 -0.4744539,-2.115231 L 9.63062,47.964684 9.611776,50.05179 9.592932,52.138896 9.7743417,52.448449 c 0.2956243,0.504444 0.7512633,0.673626 1.7096693,0.634813 0.358151,-0.0145 0.674353,-0.07045 0.838539,-0.14836 z m 0.119825,-5.648324 c 0.249707,-0.133639 0.491444,-0.541938 0.570022,-0.962784 0.0441,-0.236201 0.06547,-0.852654 0.04901,-1.413858 -0.03327,-1.134544 -0.120886,-1.405341 -0.570645,-1.763813 -0.222829,-0.177601 -0.331018,-0.212034 -0.681159,-0.216791 -0.501546,-0.0068 -0.84018,0.189144 -1.08983,0.630654 -0.13988,0.24738 -0.165086,0.410485 -0.189581,1.226729 -0.04825,1.607726 0.05983,2.07638 0.565135,2.450567 0.339784,0.251615 0.928736,0.273169 1.347045,0.0493 z m -0.969317,-0.736505 c -0.125489,-0.09163 -0.139878,-0.209467 -0.160281,-1.31251 l -0.02242,-1.211841 0.17899,-0.17899 c 0.213997,-0.213997 0.395028,-0.226586 0.621478,-0.04322 0.164302,0.133044 0.167672,0.160016 0.167672,1.341996 0,1.086501 -0.01343,1.221063 -0.1353,1.355728 -0.156037,0.17242 -0.450594,0.194545 -0.650144,0.04883 z m 0.870559,-4.096558 c 0.213558,-0.103382 0.366896,-0.249868 0.501835,-0.479411 0.19282,-0.328003 0.194312,-0.340633 0.194312,-1.644483 0,-1.303849 -0.0015,-1.316479 -0.194312,-1.644482 -0.369822,-0.629101 -1.134133,-0.801542 -1.749043,-0.394613 -0.487804,0.322814 -0.542479,0.533087 -0.542479,2.086297 v 1.361143 l 0.213071,0.300569 c 0.392421,0.553569 0.974074,0.706665 1.576616,0.41498 z m -0.896734,-0.819531 c -0.134752,-0.171308 -0.147203,-0.28164 -0.147203,-1.304363 0,-1.022722 0.01245,-1.133054 0.147203,-1.304362 0.181797,-0.231118 0.485904,-0.24804 0.676319,-0.03763 0.121742,0.134523 0.1353,0.269 0.1353,1.341996 0,1.072997 -0.01356,1.207474 -0.1353,1.341996 -0.190415,0.210407 -0.494522,0.193485 -0.676319,-0.03763 z m 1.055579,-4.130331 c 0.427876,-0.340787 0.52312,-0.627751 0.557837,-1.680729 0.04906,-1.487992 -0.129027,-2.050928 -0.74452,-2.353461 -0.228385,-0.112258 -0.441226,-0.133103 -1.371218,-0.134287 l -1.1008695,-0.0014 -0.022092,0.348247 c -0.014623,0.230511 0.00939,0.368213 0.071024,0.4073 0.051214,0.03248 0.5436025,0.05954 1.0941975,0.06014 1.336289,0.0014 1.271681,-0.07147 1.271681,1.435296 0,1.107338 -0.0041,1.138532 -0.167672,1.270972 -0.212118,0.171763 -0.375705,0.171823 -0.587966,2.13e-4 -0.159813,-0.129205 -0.169336,-0.186628 -0.203184,-1.225161 l -0.03551,-1.089604 -0.271296,-0.02234 c -0.444693,-0.03662 -0.47468,0.02955 -0.472718,1.043125 0.0027,1.37582 0.140143,1.767137 0.725565,2.065222 0.408096,0.207794 0.901655,0.159279 1.256743,-0.123534 z m -1.293461,-5.457644 c 1.598614,-0.894951 1.832896,-1.067087 1.910028,-1.403367 0.133391,-0.581556 -0.03483,-0.935623 -0.610726,-1.285463 -0.235048,-0.142785 -0.427361,-0.288518 -0.427361,-0.323852 0,-0.03533 0.08789,-0.118108 0.195316,-0.183941 0.546543,-0.334942 0.664885,-0.434192 0.763181,-0.640062 0.210453,-0.440767 0.08003,-1.078455 -0.265994,-1.300588 -0.478964,-0.307471 -3.0103875,-1.707191 -3.0874917,-1.707191 -0.063365,0 -0.090845,0.124964 -0.090845,0.413123 v 0.413123 l 1.1896487,0.664736 c 1.49971,0.837987 1.593644,0.90289 1.566463,1.082332 -0.02222,0.146725 -0.980805,0.75629 -1.193588,0.759008 -0.05859,7.46e-4 -0.410162,-0.171395 -0.781262,-0.382541 -0.371099,-0.211147 -0.7005253,-0.358536 -0.7320571,-0.327531 -0.031532,0.03101 -0.047513,0.228281 -0.035512,0.438391 0.021028,0.368164 0.032765,0.388042 0.3236705,0.548142 0.1660186,0.09137 0.3018516,0.192652 0.3018516,0.225076 0,0.03242 -0.143824,0.14324 -0.3196075,0.246256 -0.3168757,0.185702 -0.3196073,0.190615 -0.3196073,0.57494 0,0.263449 0.028443,0.387224 0.08878,0.386346 0.048829,-7.1e-4 0.3724598,-0.160513 0.7191808,-0.355119 0.34672,-0.194606 0.675807,-0.353828 0.731304,-0.353828 0.14534,0 1.210554,0.626411 1.25291,0.736789 0.0196,0.05108 0.01242,0.130434 -0.01596,0.176351 -0.02838,0.04592 -0.656645,0.427591 -1.396149,0.848165 l -1.3445537,0.764682 -0.0213,0.406066 c -0.012766,0.24337 0.00782,0.406067 0.051369,0.406067 0.039968,0 0.7367097,-0.37175 1.5483117,-0.82611 z m -1.059122,-7.118763 c 0.06163,-0.03909 0.08565,-0.176789 0.07102,-0.407299 -0.01875,-0.295584 -0.04553,-0.351585 -0.17709,-0.370313 -0.2049518,-0.02918 -0.3331633,0.213626 -0.2753982,0.521542 0.03828,0.204046 0.110246,0.292455 0.2528362,0.310603 0.01953,0.0025 0.07741,-0.02205 0.128628,-0.05453 z m 2.788018,-0.0123 c 0.158699,-0.08493 0.19381,-0.551875 0.05215,-0.693535 -0.119314,-0.119314 -2.267087,-0.119314 -2.386401,0 -0.133601,0.133601 -0.106909,0.605323 0.03906,0.690344 0.16394,0.09549 2.117655,0.0982 2.295187,0.0032 z m 0.106059,-1.231837 c 0.02333,-0.09294 0.03193,-0.260731 0.01911,-0.372875 l -0.0233,-0.203897 -0.690716,-0.03572 c -1.002438,-0.05184 -1.013856,-0.06703 -1.013856,-1.348873 0,-1.256174 -0.02009,-1.229928 0.978786,-1.278802 l 0.725786,-0.03551 V 20.052313 19.697194 H 12.18748 c -0.963886,0 -1.149855,0.07435 -1.468737,0.587217 -0.155541,0.250159 -0.164811,0.332983 -0.164811,1.472474 0,1.131411 0.01014,1.223706 0.161054,1.466396 0.306281,0.492527 0.617675,0.614066 1.595433,0.622702 0.670877,0.0059 0.692371,0.0012 0.733539,-0.162873 z m -0.707404,-4.511878 c 0.638503,-0.289974 0.75115,-0.694538 0.723692,-2.599087 l -0.02048,-1.420477 -0.348248,-0.02209 c -0.392159,-0.02488 -0.465753,0.03731 -0.467439,0.394967 -5.68e-4,0.126956 -0.02067,0.230828 -0.04461,0.230828 -0.02394,0 -0.234848,-0.143823 -0.468692,-0.319607 -0.517989,-0.389379 -0.814981,-0.42509 -1.050042,-0.126258 -0.146359,0.186064 -0.151236,0.250049 -0.129447,1.69816 l 0.02264,1.50481 0.218121,0.272752 c 0.408633,0.510977 0.979291,0.651773 1.564501,0.386004 z m -0.736515,-0.693467 c -0.219352,-0.08826 -0.300357,-0.437296 -0.300357,-1.294199 0,-0.468392 0.02898,-0.869531 0.0644,-0.89142 0.03542,-0.02189 0.243163,0.105823 0.461655,0.283806 l 0.397259,0.323604 v 0.670825 c 0,0.576126 -0.02005,0.690876 -0.142048,0.812872 -0.137969,0.137968 -0.295802,0.168987 -0.480905,0.09451 z m 1.39001,-3.659909 c 0.115961,-0.115961 0.119103,-2.55866 0.0036,-2.77815 -0.205175,-0.3898 -0.553059,-0.362558 -1.133882,0.08879 -0.248047,0.192755 -0.467544,0.334053 -0.487771,0.313994 -0.02023,-0.02006 -0.05275,-0.441444 -0.07229,-0.936411 l -0.03551,-0.89994 -0.203897,-0.0233 c -0.112144,-0.01282 -0.279938,-0.0042 -0.372875,0.01911 l -0.168978,0.04241 v 1.315817 c 0,1.30234 0.0018,1.317601 0.174331,1.490146 0.257454,0.257455 0.469284,0.219065 0.997562,-0.180787 0.258047,-0.195316 0.483465,-0.355119 0.500928,-0.355119 0.01746,0 0.03175,0.397226 0.03175,0.882724 0,0.707779 0.02212,0.904845 0.111609,0.994334 0.131762,0.131762 0.533882,0.147946 0.655448,0.02638 z M 35.483294,73.706196 C 32.723127,73.536284 30.501483,73.069469 29.353635,72.418225 28.743152,72.07186 27.894928,71.412054 27.55799,71.021451 26.263102,69.52032 26.064557,67.841507 27.044222,66.677242 c 0.275382,-0.327273 0.940391,-0.741943 1.47536,-0.91997 0.595797,-0.198268 1.932646,-0.427266 2.494304,-0.427266 0.939803,0 1.611001,0.275763 1.647775,0.676993 0.03814,0.416101 -0.155682,0.612195 -1.577262,1.59577 -0.762666,0.527678 -1.247285,1.321556 -1.113476,1.824034 0.199678,0.749827 2.400716,1.105805 7.637851,1.235285 4.601009,0.113751 7.722478,-0.105625 9.149702,-0.643041 0.580222,-0.218482 1.091693,-0.641343 1.195728,-0.988579 0.114448,-0.382005 0.03436,-0.629821 -0.309166,-0.956608 -0.543965,-0.517461 -1.181638,-0.715253 -2.766911,-0.858225 -2.039769,-0.183963 -3.927206,-0.883413 -5.381987,-1.994466 -1.377557,-1.052075 -1.806711,-2.201392 -1.988163,-5.324486 -0.03859,-0.664073 -0.07046,-4.229576 -0.07084,-7.923339 -7.1e-4,-5.263047 -0.01989,-6.740877 -0.08947,-6.831235 -0.04883,-0.06342 -1.399169,-0.712017 -3.000757,-1.441336 -4.539153,-2.067006 -6.082406,-2.887702 -7.660496,-4.073821 -3.946454,-2.966222 -6.094808,-6.772542 -6.650745,-11.783383 -0.158914,-1.432345 -0.05035,-4.965317 0.196858,-6.406292 0.05191,-0.302576 0.06825,-0.320741 0.306571,-0.340875 0.279539,-0.02362 2.330164,0.167852 2.385,0.222688 0.0191,0.0191 -0.0045,0.537406 -0.05233,1.151793 -0.227019,2.912957 0.131777,6.66016 0.850243,8.8798 0.610588,1.886358 1.391131,3.030501 2.372979,3.478382 0.357747,0.163189 0.485993,0.184885 0.958822,0.162208 0.619614,-0.02972 1.151022,-0.242428 1.34491,-0.538338 0.108889,-0.166185 0.108308,-0.220911 -0.0084,-0.7909 -0.06896,-0.336799 -0.456559,-1.619124 -0.861336,-2.849612 -0.895318,-2.721693 -0.994729,-3.060321 -1.133861,-3.862347 -0.325609,-1.87697 0.09089,-2.767575 1.453102,-3.107148 0.581208,-0.144884 2.182481,-0.112483 3.33812,0.06755 0.527352,0.08215 1.390291,0.21733 1.917643,0.300396 1.236294,0.194733 4.811765,0.26636 7.173407,0.143703 5.29575,-0.275047 11.023765,-1.291701 12.713265,-2.256452 0.794501,-0.453684 0.957735,-0.82592 0.946649,-2.158777 l -0.0074,-0.89423 0.471463,-0.230358 c 0.259308,-0.126696 0.720601,-0.375381 1.025109,-0.552633 0.3045,-0.177251 0.570065,-0.30585 0.590137,-0.285776 0.132608,0.132611 0.642169,2.892538 0.848791,4.597311 0.179655,1.482262 0.217085,4.292351 0.07284,5.468835 -0.537998,4.388179 -2.230205,7.581666 -5.474559,10.331432 -2.057603,1.743928 -3.348362,2.519317 -8.858688,5.321607 -1.669103,0.848828 -3.054487,1.575291 -3.078635,1.614364 -0.06972,0.112802 -0.03558,8.628452 0.04338,10.822523 0.103802,2.884307 0.319111,4.955202 0.608199,5.849796 0.07146,0.221123 0.213263,0.42651 0.431739,0.625299 0.639833,0.582177 2.352416,1.29721 4.639419,1.937036 1.857138,0.519565 2.473909,0.736773 3.444656,1.213115 1.304963,0.64034 2.175154,1.404881 2.585089,2.271247 0.154243,0.325965 0.18484,0.491178 0.18484,0.998017 0,0.561966 -0.02053,0.648936 -0.274614,1.163022 -0.404175,0.817795 -1.021933,1.418562 -1.891613,1.83958 -1.502878,0.727557 -4.147308,1.277275 -7.564038,1.572398 -1.544718,0.133426 -4.874138,0.188969 -6.250096,0.104267 z m 15.280222,-38.396274 1.481401,-1.060568 v -1.736222 c 0,-0.954921 -0.02458,-1.824113 -0.05462,-1.931537 -0.04068,-0.145489 -0.09929,-0.195315 -0.229727,-0.195315 -0.21185,0 -2.002879,0.633555 -2.710866,0.958939 -0.592033,0.272088 -0.690593,0.414135 -0.763769,1.100752 -0.06318,0.592809 -0.259961,0.894382 -0.824167,1.263037 -0.590116,0.385579 -0.895099,0.427667 -3.407028,0.470171 -1.152361,0.0195 -2.363417,0.07054 -2.691234,0.113423 -0.359786,0.04707 -1.148037,0.259075 -1.988668,0.534878 -1.376612,0.45165 -3.602479,1.260649 -3.678959,1.33713 -0.02172,0.02172 -0.01876,0.09353 0.0066,0.159571 0.04295,0.111933 0.498064,0.117573 6.712869,0.08319 l 6.666794,-0.03688 1.481401,-1.060567 z M 34.089231,33.678379 c 1.226443,-0.436183 1.683323,-0.647002 1.884413,-0.869531 0.09493,-0.105047 0.161127,-0.351932 0.22212,-0.828362 0.10364,-0.809544 0.185732,-0.923057 0.924579,-1.278509 0.667148,-0.32096 1.353949,-0.391324 3.618714,-0.370748 1.185998,0.01077 1.96427,-0.01435 2.343786,-0.07567 0.312505,-0.05049 1.463091,-0.391307 2.556858,-0.757369 3.221904,-1.078306 3.588344,-1.25526 2.911977,-1.406197 -0.163653,-0.03652 -3.021034,-0.04371 -6.739998,-0.01696 l -6.455898,0.04644 -1.488605,1.072109 -1.488606,1.072109 0.02536,1.824992 c 0.02765,1.989805 0.05229,2.113071 0.404784,2.024601 0.0973,-0.02442 0.673535,-0.221025 1.280518,-0.436898 z"
         id="path126"
         inkscape:connector-curvature="0" />
      <path
         style="fill:#a6175b;stroke-width:0.07102383"
         d="m 7.5531731,74.019228 c -0.0708,-0.02883 -0.08878,-5.383412 -0.08878,-26.439336 0,-14.521754 0.021255,-29.620533 0.047232,-33.552843 l 0.047232,-7.1496534 h 3.7794899 3.779489 l 0.04843,4.9894244 c 0.02664,2.744183 0.03848,17.853616 0.02632,33.576517 l -0.02211,28.587094 -3.764263,0.01247 c -2.0703445,0.0069 -3.8042138,-0.0038 -3.8530426,-0.02367 z m 2.7800859,-4.113989 c 0.02371,-0.06179 0.04311,-0.461298 0.04311,-0.887798 V 68.241988 H 11.6523 c 1.188784,0 1.280951,-0.0094 1.349452,-0.137378 0.08629,-0.161243 0.09499,-0.50013 0.01602,-0.62443 -0.03953,-0.06223 -0.419299,-0.09263 -1.330609,-0.106536 l -1.275287,-0.01945 -0.03551,-0.831296 c -0.02008,-0.469944 -0.07003,-0.865681 -0.114932,-0.910399 -0.04368,-0.04351 -0.203485,-0.06893 -0.3551191,-0.0565 l -0.2756989,0.0226 -0.018768,2.219495 -0.018767,2.219495 h 0.3485316 c 0.2522974,0 0.3604354,-0.03102 0.3916424,-0.112345 z m 2.715354,-4.833785 c 0.02589,-0.103144 0.01783,-0.270938 -0.0179,-0.372876 -0.06386,-0.182181 -0.07887,-0.185947 -0.880245,-0.220853 l -0.815273,-0.03551 -0.01957,-1.166523 c -0.01077,-0.641588 0.0074,-1.193532 0.04044,-1.226541 0.03301,-0.03301 0.405247,0.199903 0.827196,0.517582 0.589332,0.4437 0.781397,0.555155 0.828512,0.48079 0.07172,-0.113207 0.07486,-0.540818 0.0052,-0.714227 -0.08127,-0.202435 -1.71454,-1.406761 -1.907808,-1.406761 -0.523447,0 -0.59079,0.235546 -0.59079,2.066398 v 1.477011 l -0.337363,0.02165 c -0.3358961,0.02155 -0.3374615,0.02284 -0.3598517,0.295456 -0.04045,0.492491 -0.1108533,0.471942 1.6169417,0.471942 h 1.563401 z m -0.726169,-4.528016 c 0.327648,-0.136899 0.596735,-0.517768 0.681465,-0.96455 0.08581,-0.452455 0.09382,-2.83944 0.01,-2.97166 -0.03827,-0.06035 -0.169801,-0.08548 -0.371787,-0.07102 -0.305422,0.02185 -0.31338,0.02873 -0.34808,0.300907 -0.01953,0.153199 -0.07016,0.289928 -0.112512,0.303843 -0.04235,0.01391 -0.234115,-0.09881 -0.426143,-0.250506 -0.529939,-0.418627 -0.644495,-0.465697 -0.887958,-0.364851 -0.317935,0.131693 -0.368807,0.42206 -0.338869,1.934192 l 0.02612,1.319152 0.21271,0.300108 c 0.369199,0.520892 0.981927,0.703869 1.555083,0.464389 z M 11.410243,59.703325 C 11.323163,59.579 11.29968,59.33764 11.29968,58.566943 c 0,-0.670297 0.02486,-0.97853 0.07892,-0.97853 0.07567,0 0.748957,0.524564 0.864768,0.67375 0.03074,0.0396 0.04672,0.348347 0.03551,0.686105 -0.01609,0.484892 -0.04885,0.645539 -0.155681,0.763506 -0.186259,0.205672 -0.566135,0.20117 -0.712959,-0.0084 z m 0.912307,-6.768423 c 0.357348,-0.169573 0.59569,-0.503833 0.681359,-0.955564 0.09484,-0.500105 0.09314,-3.024489 -0.0022,-3.20256 -0.04044,-0.07556 -0.348941,-0.34513 -0.685557,-0.599034 -0.675397,-0.509439 -0.964577,-0.584604 -1.229584,-0.319596 -0.135033,0.135032 -0.142048,0.236746 -0.142048,2.059691 v 1.917643 h 0.34752 c 0.251375,0 0.359448,-0.03108 0.390631,-0.112344 0.02371,-0.06179 0.04311,-0.748945 0.04311,-1.527013 0,-0.817388 0.02769,-1.414667 0.06557,-1.414667 0.03607,0 0.165732,0.08428 0.288146,0.187281 l 0.222571,0.187281 -0.02181,1.40348 c -0.02736,1.761183 0.0062,1.702125 -0.968288,1.702125 -1.004661,0 -0.93565,0.162567 -0.93565,-2.20405 0,-2.191992 0.0083,-2.154981 -0.4744539,-2.115231 L 9.63062,47.964684 9.611776,50.05179 9.592932,52.138896 9.7743417,52.448449 c 0.2956243,0.504444 0.7512633,0.673626 1.7096693,0.634813 0.358151,-0.0145 0.674353,-0.07045 0.838539,-0.14836 z m 0.119825,-5.648324 c 0.249707,-0.133639 0.491444,-0.541938 0.570022,-0.962784 0.0441,-0.236201 0.06547,-0.852654 0.04901,-1.413858 -0.03327,-1.134544 -0.120886,-1.405341 -0.570645,-1.763813 -0.222829,-0.177601 -0.331018,-0.212034 -0.681159,-0.216791 -0.501546,-0.0068 -0.84018,0.189144 -1.08983,0.630654 -0.13988,0.24738 -0.165086,0.410485 -0.189581,1.226729 -0.04825,1.607726 0.05983,2.07638 0.565135,2.450567 0.339784,0.251615 0.928736,0.273169 1.347045,0.0493 z m -0.969317,-0.736505 c -0.125489,-0.09163 -0.139878,-0.209467 -0.160281,-1.31251 l -0.02242,-1.211841 0.17899,-0.17899 c 0.213997,-0.213997 0.395028,-0.226586 0.621478,-0.04322 0.164302,0.133044 0.167672,0.160016 0.167672,1.341996 0,1.086501 -0.01343,1.221063 -0.1353,1.355728 -0.156037,0.17242 -0.450594,0.194545 -0.650144,0.04883 z m 0.870559,-4.096558 c 0.213558,-0.103382 0.366896,-0.249868 0.501835,-0.479411 0.19282,-0.328003 0.194312,-0.340633 0.194312,-1.644483 0,-1.303849 -0.0015,-1.316479 -0.194312,-1.644482 -0.369822,-0.629101 -1.134133,-0.801542 -1.749043,-0.394613 -0.487804,0.322814 -0.542479,0.533087 -0.542479,2.086297 v 1.361143 l 0.213071,0.300569 c 0.392421,0.553569 0.974074,0.706665 1.576616,0.41498 z m -0.896734,-0.819531 c -0.134752,-0.171308 -0.147203,-0.28164 -0.147203,-1.304363 0,-1.022722 0.01245,-1.133054 0.147203,-1.304362 0.181797,-0.231118 0.485904,-0.24804 0.676319,-0.03763 0.121742,0.134523 0.1353,0.269 0.1353,1.341996 0,1.072997 -0.01356,1.207474 -0.1353,1.341996 -0.190415,0.210407 -0.494522,0.193485 -0.676319,-0.03763 z m 1.055579,-4.130331 c 0.427876,-0.340787 0.52312,-0.627751 0.557837,-1.680729 0.04906,-1.487992 -0.129027,-2.050928 -0.74452,-2.353461 -0.228385,-0.112258 -0.441226,-0.133103 -1.371218,-0.134287 l -1.1008695,-0.0014 -0.022092,0.348247 c -0.014623,0.230511 0.00939,0.368213 0.071024,0.4073 0.051214,0.03248 0.5436025,0.05954 1.0941975,0.06014 1.336289,0.0014 1.271681,-0.07147 1.271681,1.435296 0,1.107338 -0.0041,1.138532 -0.167672,1.270972 -0.212118,0.171763 -0.375705,0.171823 -0.587966,2.13e-4 -0.159813,-0.129205 -0.169336,-0.186628 -0.203184,-1.225161 l -0.03551,-1.089604 -0.271296,-0.02234 c -0.444693,-0.03662 -0.47468,0.02955 -0.472718,1.043125 0.0027,1.37582 0.140143,1.767137 0.725565,2.065222 0.408096,0.207794 0.901655,0.159279 1.256743,-0.123534 z m -1.293461,-5.457644 c 1.598614,-0.894951 1.832896,-1.067087 1.910028,-1.403367 0.133391,-0.581556 -0.03483,-0.935623 -0.610726,-1.285463 -0.235048,-0.142785 -0.427361,-0.288518 -0.427361,-0.323852 0,-0.03533 0.08789,-0.118108 0.195316,-0.183941 0.546543,-0.334942 0.664885,-0.434192 0.763181,-0.640062 0.210453,-0.440767 0.08003,-1.078455 -0.265994,-1.300588 -0.478964,-0.307471 -3.0103875,-1.707191 -3.0874917,-1.707191 -0.063365,0 -0.090845,0.124964 -0.090845,0.413123 v 0.413123 l 1.1896487,0.664736 c 1.49971,0.837987 1.593644,0.90289 1.566463,1.082332 -0.02222,0.146725 -0.980805,0.75629 -1.193588,0.759008 -0.05859,7.46e-4 -0.410162,-0.171395 -0.781262,-0.382541 -0.371099,-0.211147 -0.7005253,-0.358536 -0.7320571,-0.327531 -0.031532,0.03101 -0.047513,0.228281 -0.035512,0.438391 0.021028,0.368164 0.032765,0.388042 0.3236705,0.548142 0.1660186,0.09137 0.3018516,0.192652 0.3018516,0.225076 0,0.03242 -0.143824,0.14324 -0.3196075,0.246256 -0.3168757,0.185702 -0.3196073,0.190615 -0.3196073,0.57494 0,0.263449 0.028443,0.387224 0.08878,0.386346 0.048829,-7.1e-4 0.3724598,-0.160513 0.7191808,-0.355119 0.34672,-0.194606 0.675807,-0.353828 0.731304,-0.353828 0.14534,0 1.210554,0.626411 1.25291,0.736789 0.0196,0.05108 0.01242,0.130434 -0.01596,0.176351 -0.02838,0.04592 -0.656645,0.427591 -1.396149,0.848165 l -1.3445537,0.764682 -0.0213,0.406066 c -0.012766,0.24337 0.00782,0.406067 0.051369,0.406067 0.039968,0 0.7367097,-0.37175 1.5483117,-0.82611 z m -1.059122,-7.118763 c 0.06163,-0.03909 0.08565,-0.176789 0.07102,-0.407299 -0.01875,-0.295584 -0.04553,-0.351585 -0.17709,-0.370313 -0.2049518,-0.02918 -0.3331633,0.213626 -0.2753982,0.521542 0.03828,0.204046 0.110246,0.292455 0.2528362,0.310603 0.01953,0.0025 0.07741,-0.02205 0.128628,-0.05453 z m 2.788018,-0.0123 c 0.158699,-0.08493 0.19381,-0.551875 0.05215,-0.693535 -0.119314,-0.119314 -2.267087,-0.119314 -2.386401,0 -0.133601,0.133601 -0.106909,0.605323 0.03906,0.690344 0.16394,0.09549 2.117655,0.0982 2.295187,0.0032 z m 0.106059,-1.231837 c 0.02333,-0.09294 0.03193,-0.260731 0.01911,-0.372875 l -0.0233,-0.203897 -0.690716,-0.03572 c -1.002438,-0.05184 -1.013856,-0.06703 -1.013856,-1.348873 0,-1.256174 -0.02009,-1.229928 0.978786,-1.278802 l 0.725786,-0.03551 V 20.052313 19.697194 H 12.18748 c -0.963886,0 -1.149855,0.07435 -1.468737,0.587217 -0.155541,0.250159 -0.164811,0.332983 -0.164811,1.472474 0,1.131411 0.01014,1.223706 0.161054,1.466396 0.306281,0.492527 0.617675,0.614066 1.595433,0.622702 0.670877,0.0059 0.692371,0.0012 0.733539,-0.162873 z m -0.707404,-4.511878 c 0.638503,-0.289974 0.75115,-0.694538 0.723692,-2.599087 l -0.02048,-1.420477 -0.348248,-0.02209 c -0.392159,-0.02488 -0.465753,0.03731 -0.467439,0.394967 -5.68e-4,0.126956 -0.02067,0.230828 -0.04461,0.230828 -0.02394,0 -0.234848,-0.143823 -0.468692,-0.319607 -0.517989,-0.389379 -0.814981,-0.42509 -1.050042,-0.126258 -0.146359,0.186064 -0.151236,0.250049 -0.129447,1.69816 l 0.02264,1.50481 0.218121,0.272752 c 0.408633,0.510977 0.979291,0.651773 1.564501,0.386004 z m -0.736515,-0.693467 c -0.219352,-0.08826 -0.300357,-0.437296 -0.300357,-1.294199 0,-0.468392 0.02898,-0.869531 0.0644,-0.89142 0.03542,-0.02189 0.243163,0.105823 0.461655,0.283806 l 0.397259,0.323604 v 0.670825 c 0,0.576126 -0.02005,0.690876 -0.142048,0.812872 -0.137969,0.137968 -0.295802,0.168987 -0.480905,0.09451 z m 1.39001,-3.659909 c 0.115961,-0.115961 0.119103,-2.55866 0.0036,-2.77815 -0.205175,-0.3898 -0.553059,-0.362558 -1.133882,0.08879 -0.248047,0.192755 -0.467544,0.334053 -0.487771,0.313994 -0.02023,-0.02006 -0.05275,-0.441444 -0.07229,-0.936411 l -0.03551,-0.89994 -0.203897,-0.0233 c -0.112144,-0.01282 -0.279938,-0.0042 -0.372875,0.01911 l -0.168978,0.04241 v 1.315817 c 0,1.30234 0.0018,1.317601 0.174331,1.490146 0.257454,0.257455 0.469284,0.219065 0.997562,-0.180787 0.258047,-0.195316 0.483465,-0.355119 0.500928,-0.355119 0.01746,0 0.03175,0.397226 0.03175,0.882724 0,0.707779 0.02212,0.904845 0.111609,0.994334 0.131762,0.131762 0.533882,0.147946 0.655448,0.02638 z m 22.386711,58.81791 c -2.136989,-0.146093 -4.166146,-0.495365 -5.158587,-0.88793 -1.526059,-0.603643 -2.755259,-1.670154 -3.386137,-2.937973 -0.295702,-0.594248 -0.297743,-0.603738 -0.297743,-1.384965 0,-0.720848 0.01632,-0.817576 0.195204,-1.156909 0.245961,-0.466579 0.742829,-0.945946 1.273841,-1.228972 0.658903,-0.351192 1.832251,-0.58978 2.934433,-0.596688 0.849146,-0.0053 0.951834,0.0085 1.278428,0.171773 0.30257,0.151285 0.35838,0.211266 0.377148,0.405339 0.03041,0.314437 -0.368931,0.734765 -1.264541,1.330997 -0.787559,0.524299 -1.224259,1.010399 -1.380564,1.536736 -0.146296,0.492632 -0.04779,0.803378 0.313024,0.987451 1.063874,0.542748 3.927599,0.83752 8.489126,0.873812 3.276229,0.02607 5.218767,-0.07389 6.747263,-0.347206 1.138456,-0.203567 1.68563,-0.419565 2.168912,-0.856183 0.862982,-0.779653 0.271773,-1.769399 -1.316256,-2.203542 -0.195522,-0.05345 -0.86686,-0.143065 -1.49187,-0.199143 -1.811562,-0.162536 -3.42506,-0.70903 -4.82962,-1.635793 -1.292606,-0.852894 -1.870207,-1.669815 -2.158613,-3.053028 -0.296589,-1.422425 -0.313123,-1.873037 -0.356398,-9.710023 -0.03648,-6.608332 -0.0555,-7.592182 -0.148383,-7.679804 -0.0586,-0.05527 -1.368984,-0.67702 -2.911977,-1.381658 -3.959577,-1.808217 -4.477951,-2.05899 -5.596678,-2.707484 -2.807349,-1.627343 -4.811883,-3.488523 -6.320517,-5.868502 -0.592714,-0.93505 -0.861288,-1.458602 -1.255098,-2.44666 -0.316511,-0.794118 -0.713341,-2.11877 -0.652847,-2.179263 0.07793,-0.07794 2.70088,0.118156 2.755155,0.205974 0.0297,0.04805 0.14966,0.375779 0.266588,0.72829 0.605608,1.825768 1.373972,2.952903 2.351561,3.449573 0.727782,0.369753 1.946966,0.213547 2.38363,-0.305399 0.163228,-0.193985 0.182145,-0.265708 0.144641,-0.548422 -0.04475,-0.337373 -0.406142,-1.684156 -0.712586,-2.655589 l -0.176251,-0.558718 0.725052,0.04235 c 0.398778,0.02329 1.452157,0.06289 2.340843,0.08799 l 1.615792,0.04564 0.0052,1.180963 c 0.0057,1.287057 0.06421,1.882469 0.198329,2.016589 0.06798,0.06798 0.272107,0.02357 0.953583,-0.207499 1.451248,-0.492071 2.226593,-0.809605 2.46706,-1.010355 0.213972,-0.178632 0.23512,-0.237824 0.318965,-0.89275 0.09374,-0.732219 0.09722,-0.738769 0.567112,-1.068783 0.104156,-0.07315 0.589263,-0.119586 1.811107,-0.173352 7.75397,-0.341206 13.072575,-1.038774 17.384339,-2.280064 0.401214,-0.115501 0.744181,-0.210004 0.76215,-0.210004 0.05755,0 -0.04185,0.647822 -0.250643,1.633549 -0.696836,3.28976 -2.388105,6.070929 -5.068509,8.334767 -2.133222,1.801695 -3.353149,2.533732 -8.956758,5.374656 -1.562525,0.79217 -2.896885,1.488331 -2.965245,1.547025 -0.115854,0.09947 -0.124285,0.401291 -0.124214,4.445918 0,7.088983 0.208867,10.84562 0.684485,12.318282 0.301013,0.932021 1.793316,1.680669 5.409885,2.713996 0.949568,0.271309 2.004271,0.60751 2.343787,0.747112 3.632606,1.493648 4.563614,3.738903 2.423773,5.845255 -1.085898,1.068906 -4.131662,1.869667 -8.538783,2.244931 -1.571175,0.133785 -5.092984,0.191095 -6.371583,0.103686 z M 49.375874,36.348446 c 0.217077,-0.116011 2.603435,-1.818144 2.815775,-2.008429 0.156956,-0.140657 0.15969,-0.171115 0.153582,-1.711106 -0.0034,-0.862345 -0.02739,-1.727704 -0.05327,-1.923019 -0.04561,-0.344273 -0.05464,-0.35574 -0.295629,-0.375431 -0.136721,-0.01117 -0.472309,0.05815 -0.74575,0.154046 -0.912337,0.31996 -2.162775,0.815019 -2.37449,0.94008 -0.282647,0.166965 -0.41664,0.465141 -0.470043,1.046011 -0.03893,0.423501 -0.07646,0.521422 -0.290651,0.758509 -0.33497,0.370767 -0.841256,0.676841 -1.268294,0.766739 -0.195315,0.04112 -1.329921,0.09134 -2.521346,0.111604 -1.191424,0.02027 -2.433553,0.07167 -2.760277,0.114226 -0.926215,0.120647 -5.473146,1.665751 -5.75996,1.957307 -0.0983,0.09992 -0.09502,0.121892 0.03289,0.220802 0.126588,0.09789 0.861711,0.106018 6.754685,0.07471 5.182929,-0.02753 6.649422,-0.05479 6.782776,-0.126052 z"
         id="path124"
         inkscape:connector-curvature="0" />
      <path
         style="fill:#575759;stroke-width:0.07102383"
         d="m 7.5531731,74.019228 c -0.0708,-0.02883 -0.08878,-5.383412 -0.08878,-26.439336 0,-14.521754 0.021255,-29.620533 0.047232,-33.552843 l 0.047232,-7.1496534 h 3.7794899 3.779489 l 0.04843,4.9894244 c 0.02664,2.744183 0.03848,17.853616 0.02632,33.576517 l -0.02211,28.587094 -3.764263,0.01247 c -2.0703445,0.0069 -3.8042138,-0.0038 -3.8530426,-0.02367 z m 2.7800859,-4.113989 c 0.02371,-0.06179 0.04311,-0.461298 0.04311,-0.887798 V 68.241988 H 11.6523 c 1.188784,0 1.280951,-0.0094 1.349452,-0.137378 0.08629,-0.161243 0.09499,-0.50013 0.01602,-0.62443 -0.03953,-0.06223 -0.419299,-0.09263 -1.330609,-0.106536 l -1.275287,-0.01945 -0.03551,-0.831296 c -0.02008,-0.469944 -0.07003,-0.865681 -0.114932,-0.910399 -0.04368,-0.04351 -0.203485,-0.06893 -0.3551191,-0.0565 l -0.2756989,0.0226 -0.018768,2.219495 -0.018767,2.219495 h 0.3485316 c 0.2522974,0 0.3604354,-0.03102 0.3916424,-0.112345 z m 2.715354,-4.833785 c 0.02589,-0.103144 0.01783,-0.270938 -0.0179,-0.372876 -0.06386,-0.182181 -0.07887,-0.185947 -0.880245,-0.220853 l -0.815273,-0.03551 -0.01957,-1.166523 c -0.01077,-0.641588 0.0074,-1.193532 0.04044,-1.226541 0.03301,-0.03301 0.405247,0.199903 0.827196,0.517582 0.589332,0.4437 0.781397,0.555155 0.828512,0.48079 0.07172,-0.113207 0.07486,-0.540818 0.0052,-0.714227 -0.08127,-0.202435 -1.71454,-1.406761 -1.907808,-1.406761 -0.523447,0 -0.59079,0.235546 -0.59079,2.066398 v 1.477011 l -0.337363,0.02165 c -0.3358961,0.02155 -0.3374615,0.02284 -0.3598517,0.295456 -0.04045,0.492491 -0.1108533,0.471942 1.6169417,0.471942 h 1.563401 z m -0.726169,-4.528016 c 0.327648,-0.136899 0.596735,-0.517768 0.681465,-0.96455 0.08581,-0.452455 0.09382,-2.83944 0.01,-2.97166 -0.03827,-0.06035 -0.169801,-0.08548 -0.371787,-0.07102 -0.305422,0.02185 -0.31338,0.02873 -0.34808,0.300907 -0.01953,0.153199 -0.07016,0.289928 -0.112512,0.303843 -0.04235,0.01391 -0.234115,-0.09881 -0.426143,-0.250506 -0.529939,-0.418627 -0.644495,-0.465697 -0.887958,-0.364851 -0.317935,0.131693 -0.368807,0.42206 -0.338869,1.934192 l 0.02612,1.319152 0.21271,0.300108 c 0.369199,0.520892 0.981927,0.703869 1.555083,0.464389 z M 11.410243,59.703325 C 11.323163,59.579 11.29968,59.33764 11.29968,58.566943 c 0,-0.670297 0.02486,-0.97853 0.07892,-0.97853 0.07567,0 0.748957,0.524564 0.864768,0.67375 0.03074,0.0396 0.04672,0.348347 0.03551,0.686105 -0.01609,0.484892 -0.04885,0.645539 -0.155681,0.763506 -0.186259,0.205672 -0.566135,0.20117 -0.712959,-0.0084 z m 0.912307,-6.768423 c 0.357348,-0.169573 0.59569,-0.503833 0.681359,-0.955564 0.09484,-0.500105 0.09314,-3.024489 -0.0022,-3.20256 -0.04044,-0.07556 -0.348941,-0.34513 -0.685557,-0.599034 -0.675397,-0.509439 -0.964577,-0.584604 -1.229584,-0.319596 -0.135033,0.135032 -0.142048,0.236746 -0.142048,2.059691 v 1.917643 h 0.34752 c 0.251375,0 0.359448,-0.03108 0.390631,-0.112344 0.02371,-0.06179 0.04311,-0.748945 0.04311,-1.527013 0,-0.817388 0.02769,-1.414667 0.06557,-1.414667 0.03607,0 0.165732,0.08428 0.288146,0.187281 l 0.222571,0.187281 -0.02181,1.40348 c -0.02736,1.761183 0.0062,1.702125 -0.968288,1.702125 -1.004661,0 -0.93565,0.162567 -0.93565,-2.20405 0,-2.191992 0.0083,-2.154981 -0.4744539,-2.115231 L 9.63062,47.964684 9.611776,50.05179 9.592932,52.138896 9.7743417,52.448449 c 0.2956243,0.504444 0.7512633,0.673626 1.7096693,0.634813 0.358151,-0.0145 0.674353,-0.07045 0.838539,-0.14836 z m 0.119825,-5.648324 c 0.249707,-0.133639 0.491444,-0.541938 0.570022,-0.962784 0.0441,-0.236201 0.06547,-0.852654 0.04901,-1.413858 -0.03327,-1.134544 -0.120886,-1.405341 -0.570645,-1.763813 -0.222829,-0.177601 -0.331018,-0.212034 -0.681159,-0.216791 -0.501546,-0.0068 -0.84018,0.189144 -1.08983,0.630654 -0.13988,0.24738 -0.165086,0.410485 -0.189581,1.226729 -0.04825,1.607726 0.05983,2.07638 0.565135,2.450567 0.339784,0.251615 0.928736,0.273169 1.347045,0.0493 z m -0.969317,-0.736505 c -0.125489,-0.09163 -0.139878,-0.209467 -0.160281,-1.31251 l -0.02242,-1.211841 0.17899,-0.17899 c 0.213997,-0.213997 0.395028,-0.226586 0.621478,-0.04322 0.164302,0.133044 0.167672,0.160016 0.167672,1.341996 0,1.086501 -0.01343,1.221063 -0.1353,1.355728 -0.156037,0.17242 -0.450594,0.194545 -0.650144,0.04883 z m 0.870559,-4.096558 c 0.213558,-0.103382 0.366896,-0.249868 0.501835,-0.479411 0.19282,-0.328003 0.194312,-0.340633 0.194312,-1.644483 0,-1.303849 -0.0015,-1.316479 -0.194312,-1.644482 -0.369822,-0.629101 -1.134133,-0.801542 -1.749043,-0.394613 -0.487804,0.322814 -0.542479,0.533087 -0.542479,2.086297 v 1.361143 l 0.213071,0.300569 c 0.392421,0.553569 0.974074,0.706665 1.576616,0.41498 z m -0.896734,-0.819531 c -0.134752,-0.171308 -0.147203,-0.28164 -0.147203,-1.304363 0,-1.022722 0.01245,-1.133054 0.147203,-1.304362 0.181797,-0.231118 0.485904,-0.24804 0.676319,-0.03763 0.121742,0.134523 0.1353,0.269 0.1353,1.341996 0,1.072997 -0.01356,1.207474 -0.1353,1.341996 -0.190415,0.210407 -0.494522,0.193485 -0.676319,-0.03763 z m 1.055579,-4.130331 c 0.427876,-0.340787 0.52312,-0.627751 0.557837,-1.680729 0.04906,-1.487992 -0.129027,-2.050928 -0.74452,-2.353461 -0.228385,-0.112258 -0.441226,-0.133103 -1.371218,-0.134287 l -1.1008695,-0.0014 -0.022092,0.348247 c -0.014623,0.230511 0.00939,0.368213 0.071024,0.4073 0.051214,0.03248 0.5436025,0.05954 1.0941975,0.06014 1.336289,0.0014 1.271681,-0.07147 1.271681,1.435296 0,1.107338 -0.0041,1.138532 -0.167672,1.270972 -0.212118,0.171763 -0.375705,0.171823 -0.587966,2.13e-4 -0.159813,-0.129205 -0.169336,-0.186628 -0.203184,-1.225161 l -0.03551,-1.089604 -0.271296,-0.02234 c -0.444693,-0.03662 -0.47468,0.02955 -0.472718,1.043125 0.0027,1.37582 0.140143,1.767137 0.725565,2.065222 0.408096,0.207794 0.901655,0.159279 1.256743,-0.123534 z m -1.293461,-5.457644 c 1.598614,-0.894951 1.832896,-1.067087 1.910028,-1.403367 0.133391,-0.581556 -0.03483,-0.935623 -0.610726,-1.285463 -0.235048,-0.142785 -0.427361,-0.288518 -0.427361,-0.323852 0,-0.03533 0.08789,-0.118108 0.195316,-0.183941 0.546543,-0.334942 0.664885,-0.434192 0.763181,-0.640062 0.210453,-0.440767 0.08003,-1.078455 -0.265994,-1.300588 -0.478964,-0.307471 -3.0103875,-1.707191 -3.0874917,-1.707191 -0.063365,0 -0.090845,0.124964 -0.090845,0.413123 v 0.413123 l 1.1896487,0.664736 c 1.49971,0.837987 1.593644,0.90289 1.566463,1.082332 -0.02222,0.146725 -0.980805,0.75629 -1.193588,0.759008 -0.05859,7.46e-4 -0.410162,-0.171395 -0.781262,-0.382541 -0.371099,-0.211147 -0.7005253,-0.358536 -0.7320571,-0.327531 -0.031532,0.03101 -0.047513,0.228281 -0.035512,0.438391 0.021028,0.368164 0.032765,0.388042 0.3236705,0.548142 0.1660186,0.09137 0.3018516,0.192652 0.3018516,0.225076 0,0.03242 -0.143824,0.14324 -0.3196075,0.246256 -0.3168757,0.185702 -0.3196073,0.190615 -0.3196073,0.57494 0,0.263449 0.028443,0.387224 0.08878,0.386346 0.048829,-7.1e-4 0.3724598,-0.160513 0.7191808,-0.355119 0.34672,-0.194606 0.675807,-0.353828 0.731304,-0.353828 0.14534,0 1.210554,0.626411 1.25291,0.736789 0.0196,0.05108 0.01242,0.130434 -0.01596,0.176351 -0.02838,0.04592 -0.656645,0.427591 -1.396149,0.848165 l -1.3445537,0.764682 -0.0213,0.406066 c -0.012766,0.24337 0.00782,0.406067 0.051369,0.406067 0.039968,0 0.7367097,-0.37175 1.5483117,-0.82611 z m -1.059122,-7.118763 c 0.06163,-0.03909 0.08565,-0.176789 0.07102,-0.407299 -0.01875,-0.295584 -0.04553,-0.351585 -0.17709,-0.370313 -0.2049518,-0.02918 -0.3331633,0.213626 -0.2753982,0.521542 0.03828,0.204046 0.110246,0.292455 0.2528362,0.310603 0.01953,0.0025 0.07741,-0.02205 0.128628,-0.05453 z m 2.788018,-0.0123 c 0.158699,-0.08493 0.19381,-0.551875 0.05215,-0.693535 -0.119314,-0.119314 -2.267087,-0.119314 -2.386401,0 -0.133601,0.133601 -0.106909,0.605323 0.03906,0.690344 0.16394,0.09549 2.117655,0.0982 2.295187,0.0032 z m 0.106059,-1.231837 c 0.02333,-0.09294 0.03193,-0.260731 0.01911,-0.372875 l -0.0233,-0.203897 -0.690716,-0.03572 c -1.002438,-0.05184 -1.013856,-0.06703 -1.013856,-1.348873 0,-1.256174 -0.02009,-1.229928 0.978786,-1.278802 l 0.725786,-0.03551 V 20.052313 19.697194 H 12.18748 c -0.963886,0 -1.149855,0.07435 -1.468737,0.587217 -0.155541,0.250159 -0.164811,0.332983 -0.164811,1.472474 0,1.131411 0.01014,1.223706 0.161054,1.466396 0.306281,0.492527 0.617675,0.614066 1.595433,0.622702 0.670877,0.0059 0.692371,0.0012 0.733539,-0.162873 z m -0.707404,-4.511878 c 0.638503,-0.289974 0.75115,-0.694538 0.723692,-2.599087 l -0.02048,-1.420477 -0.348248,-0.02209 c -0.392159,-0.02488 -0.465753,0.03731 -0.467439,0.394967 -5.68e-4,0.126956 -0.02067,0.230828 -0.04461,0.230828 -0.02394,0 -0.234848,-0.143823 -0.468692,-0.319607 -0.517989,-0.389379 -0.814981,-0.42509 -1.050042,-0.126258 -0.146359,0.186064 -0.151236,0.250049 -0.129447,1.69816 l 0.02264,1.50481 0.218121,0.272752 c 0.408633,0.510977 0.979291,0.651773 1.564501,0.386004 z m -0.736515,-0.693467 c -0.219352,-0.08826 -0.300357,-0.437296 -0.300357,-1.294199 0,-0.468392 0.02898,-0.869531 0.0644,-0.89142 0.03542,-0.02189 0.243163,0.105823 0.461655,0.283806 l 0.397259,0.323604 v 0.670825 c 0,0.576126 -0.02005,0.690876 -0.142048,0.812872 -0.137969,0.137968 -0.295802,0.168987 -0.480905,0.09451 z m 1.39001,-3.659909 c 0.115961,-0.115961 0.119103,-2.55866 0.0036,-2.77815 -0.205175,-0.3898 -0.553059,-0.362558 -1.133882,0.08879 -0.248047,0.192755 -0.467544,0.334053 -0.487771,0.313994 -0.02023,-0.02006 -0.05275,-0.441444 -0.07229,-0.936411 l -0.03551,-0.89994 -0.203897,-0.0233 c -0.112144,-0.01282 -0.279938,-0.0042 -0.372875,0.01911 l -0.168978,0.04241 v 1.315817 c 0,1.30234 0.0018,1.317601 0.174331,1.490146 0.257454,0.257455 0.469284,0.219065 0.997562,-0.180787 0.258047,-0.195316 0.483465,-0.355119 0.500928,-0.355119 0.01746,0 0.03175,0.397226 0.03175,0.882724 0,0.707779 0.02212,0.904845 0.111609,0.994334 0.131762,0.131762 0.533882,0.147946 0.655448,0.02638 z"
         id="path122"
         inkscape:connector-curvature="0" />
      <path
         style="fill:#2f3031;stroke-width:0.07102383"
         d="m 7.6011724,73.906767 c -0.028195,-0.09839 -0.034138,-35.168736 -0.00695,-41.052404 l 0.035683,-7.723842 H 8.069413 c 0.2417281,0 0.6359594,0.02053 0.8760682,0.04563 l 0.4365615,0.04563 v 0.415134 c 0,0.486724 -0.1375597,0.374163 1.6856383,1.379313 0.634128,0.349602 1.153489,0.671949 1.154137,0.716325 0.0013,0.08633 -0.926313,0.665065 -1.065935,0.665065 -0.0459,0 -0.399921,-0.179184 -0.786712,-0.398187 -0.39109,-0.221437 -0.7504961,-0.380059 -0.8096803,-0.357348 -0.080527,0.0309 -0.1064242,0.161842 -0.1064242,0.538114 v 0.497275 l 0.2835484,0.161924 c 0.1559513,0.08906 0.2837941,0.185074 0.2840951,0.213369 2.84e-4,0.02829 -0.1033252,0.104666 -0.2302803,0.169713 -0.3124423,0.160087 -0.3350222,0.208428 -0.3362758,0.719909 -0.00102,0.413691 0.00979,0.443811 0.1587162,0.442608 0.087892,-7.1e-4 0.4434839,-0.160514 0.7902049,-0.355119 0.34672,-0.194606 0.673217,-0.353829 0.725549,-0.353829 0.125124,0 0.987949,0.475471 1.093401,0.602533 0.100319,0.120878 -0.01843,0.201936 -1.560798,1.065444 -0.605063,0.338748 -1.1239348,0.653354 -1.1530496,0.699126 -0.029115,0.04577 -0.053425,0.267997 -0.054023,0.493835 -7.955e-4,0.299583 0.027622,0.421633 0.1050833,0.451358 0.060745,0.02331 0.6608983,-0.269676 1.4027213,-0.684788 2.034907,-1.138704 2.029038,-1.134789 2.185662,-1.45833 0.321029,-0.663158 0.06763,-1.264014 -0.711335,-1.686694 l -0.233838,-0.126885 0.377361,-0.228234 c 0.545618,-0.329998 0.673033,-0.533508 0.673033,-1.074976 0,-0.739959 0.01992,-0.720185 -1.795289,-1.782003 -0.518652,-0.303388 -0.930823,-0.563796 -0.915936,-0.578682 0.01489,-0.01489 0.710904,0.0049 1.546706,0.04403 0.835801,0.0391 1.830015,0.08113 2.209364,0.0934 0.379349,0.01227 0.7138,0.04637 0.743223,0.0758 0.02942,0.02942 0.05464,10.910628 0.05602,24.180453 l 0.0025,24.126956 -3.746507,0.01838 c -2.0605792,0.01011 -3.7488781,0.01011 -3.7517759,0 z m 2.7640496,-3.840238 c 0.04276,-0.05153 0.08629,-0.45592 0.09748,-0.905554 l 0.02021,-0.812451 1.313941,-0.03551 1.313941,-0.03551 0.02116,-0.444363 c 0.0201,-0.422241 0.01192,-0.447877 -0.164427,-0.514923 -0.102072,-0.03881 -0.709872,-0.07056 -1.350668,-0.07056 h -1.165084 l -0.01994,-0.870042 -0.01994,-0.870042 -0.378641,-0.02167 c -0.2181181,-0.01248 -0.4213606,0.01379 -0.4794105,0.06196 -0.1360696,0.112928 -0.1507594,4.391318 -0.015541,4.526536 0.1150557,0.115056 0.7297675,0.109202 0.8269325,-0.0079 z m 2.60245,-4.736113 c 0.174529,-0.06636 0.184454,-0.09529 0.164428,-0.47941 l -0.02131,-0.408793 -0.83453,-0.02001 -0.83453,-0.02001 v -1.098616 c 0,-0.604238 0.01578,-1.098615 0.03507,-1.098615 0.01929,0 0.358439,0.240661 0.75367,0.534802 0.570714,0.424739 0.738898,0.517958 0.817218,0.452959 0.125624,-0.104259 0.132919,-0.846585 0.0098,-1.000882 -0.04883,-0.06121 -0.451551,-0.386929 -0.894939,-0.723814 -0.684006,-0.519707 -0.846931,-0.612518 -1.075245,-0.612518 -0.158965,0 -0.337704,0.05551 -0.436758,0.135637 -0.165292,0.133712 -0.168176,0.158664 -0.203184,1.75784 l -0.03551,1.622203 -0.283195,0.02305 c -0.3777348,0.03074 -0.462761,0.11643 -0.4614677,0.465059 0.00119,0.319017 0.048166,0.427611 0.2119841,0.48997 0.1869526,0.07117 2.8951846,0.05464 3.0884686,-0.01885 z m -0.800155,-4.62008 c 0.318983,-0.08859 0.656327,-0.360552 0.82153,-0.662305 0.105198,-0.192152 0.121741,-0.448899 0.121741,-1.889525 v -1.667157 l -0.193329,-0.06818 c -0.121366,-0.0428 -0.293206,-0.04351 -0.461655,-0.0019 -0.244704,0.06044 -0.270267,0.08973 -0.29037,0.332619 -0.01212,0.146487 -0.03965,0.26634 -0.06117,0.26634 -0.02152,0 -0.189258,-0.1257 -0.372755,-0.279332 -0.363823,-0.30461 -0.619512,-0.399481 -0.892196,-0.331042 -0.337093,0.08461 -0.39196,0.336362 -0.391527,1.796496 2.13e-4,0.734373 0.03451,1.458094 0.07621,1.608269 0.09938,0.357909 0.456292,0.737696 0.811188,0.863183 0.345215,0.122065 0.489643,0.127711 0.832325,0.03254 z m -0.663825,-1.037392 c -0.101543,-0.122098 -0.186419,-1.629779 -0.10386,-1.844922 0.03319,-0.08651 0.11223,-0.0537 0.393807,0.163445 l 0.352276,0.271672 0.003,0.645963 c 0.0025,0.538071 -0.01867,0.665595 -0.126858,0.763506 -0.165993,0.150221 -0.393615,0.150369 -0.518391,3.55e-4 z m 0.931386,-6.669305 c 0.13618,-0.07982 0.343925,-0.2821 0.461655,-0.449515 l 0.214055,-0.304389 0.01974,-1.751895 c 0.01085,-0.963542 -0.0051,-1.785684 -0.03551,-1.826982 -0.06614,-0.08989 -1.134872,-0.899518 -1.325601,-1.004226 -0.113768,-0.06246 -0.08664,-0.08064 0.179873,-0.120612 0.41972,-0.06294 0.723743,-0.258916 0.963345,-0.620978 l 0.198158,-0.299438 v -1.425663 c 0,-1.297964 -0.01272,-1.447256 -0.142048,-1.666717 -0.524316,-0.889759 -1.721693,-0.957554 -2.282297,-0.129222 -0.201278,0.297402 -0.202683,0.307174 -0.227325,1.581332 -0.01551,0.80192 0.0049,1.392552 0.05463,1.577051 0.09706,0.360465 0.364379,0.690097 0.698745,0.861637 l 0.250739,0.128637 -0.22626,0.07888 c -0.396974,0.138387 -0.434461,0.343423 -0.434461,2.376355 0,1.304667 0.02343,1.82261 0.08523,1.884413 0.115821,0.115821 0.72982,0.109139 0.827875,-0.009 0.04972,-0.05991 0.08523,-0.616708 0.09748,-1.52845 l 0.01927,-1.434212 0.159803,0.112001 c 0.156611,0.109763 0.159804,0.140223 0.159804,1.524422 0,1.685628 0.02742,1.633549 -0.860221,1.633549 -0.890936,0 -0.841467,0.130387 -0.862308,-2.272763 l -0.01755,-2.024179 -0.4195546,-0.02163 c -0.2875727,-0.01483 -0.4380424,0.0075 -0.4783235,0.07102 -0.092874,0.146431 -0.07418,3.847986 0.02135,4.22737 0.096899,0.384823 0.5040721,0.830987 0.8560311,0.938006 0.128463,0.03906 0.585137,0.06412 1.014831,0.05568 0.640194,-0.01257 0.825969,-0.04155 1.028862,-0.160466 z m -0.890996,-6.524731 c -0.126786,-0.09271 -0.137866,-0.194577 -0.137866,-1.267512 0,-1.272083 0.03559,-1.401607 0.385122,-1.401607 0.338856,0 0.360628,0.08202 0.360628,1.358585 0,0.985417 -0.01904,1.207169 -0.111609,1.299736 -0.138574,0.138574 -0.316244,0.142439 -0.496275,0.0108 z m 0.9167,-3.973221 c 0.160723,-0.08842 0.350889,-0.282328 0.461655,-0.47073 0.186393,-0.317041 0.188351,-0.334766 0.188351,-1.705336 0,-1.345645 -0.005,-1.393732 -0.176796,-1.69378 -0.48975,-0.855462 -1.761273,-0.871696 -2.285101,-0.02918 -0.155058,0.249394 -0.167584,0.351367 -0.190277,1.549048 -0.02846,1.501925 0.02244,1.770097 0.409429,2.157081 0.44134,0.44134 1.014884,0.510801 1.592739,0.192893 z m -0.919267,-0.90487 c -0.113957,-0.125733 -0.139083,-0.284513 -0.159283,-1.00658 -0.03117,-1.114227 0.0187,-1.442015 0.241609,-1.588072 0.15873,-0.104003 0.187657,-0.103757 0.350565,0.003 l 0.17756,0.116342 v 1.201741 c 0,1.16133 -0.0053,1.205458 -0.157851,1.312304 -0.209269,0.146577 -0.290995,0.139586 -0.4526,-0.03872 z m 0.773645,-3.852986 c 0.275766,-0.115223 0.66615,-0.54224 0.741333,-0.8109 0.02986,-0.106707 0.05429,-0.774598 0.05429,-1.484202 V 34.16254 l -0.214055,-0.304441 c -0.377634,-0.537092 -0.542852,-0.591909 -1.866446,-0.619268 -0.831439,-0.01718 -1.1863206,2.84e-4 -1.2606726,0.06197 -0.126882,0.105303 -0.1401719,0.713629 -0.018254,0.835547 0.058217,0.05822 0.4021136,0.08523 1.0850656,0.08523 1.389973,0 1.31554,-0.07578 1.31554,1.339275 0,1.202134 -0.0242,1.288607 -0.360628,1.288607 -0.343782,0 -0.387298,-0.141354 -0.363211,-1.179831 0.02774,-1.196123 0.0042,-1.249214 -0.541161,-1.220639 l -0.40406,0.02117 v 1.242917 c 0,1.177127 0.0087,1.256967 0.165037,1.508352 0.335079,0.538918 1.076786,0.773105 1.667217,0.526407 z"
         id="path120"
         inkscape:connector-curvature="0" />
    </g>
  </g>
</svg>
