<?xml version="1.0" encoding="UTF-8" standalone="no"?>
<!-- Created with Inkscape (http://www.inkscape.org/) -->

<svg
   xmlns:dc="http://purl.org/dc/elements/1.1/"
   xmlns:cc="http://creativecommons.org/ns#"
   xmlns:rdf="http://www.w3.org/1999/02/22-rdf-syntax-ns#"
   xmlns:svg="http://www.w3.org/2000/svg"
   xmlns="http://www.w3.org/2000/svg"
   xmlns:sodipodi="http://sodipodi.sourceforge.net/DTD/sodipodi-0.dtd"
   xmlns:inkscape="http://www.inkscape.org/namespaces/inkscape"
   width="210mm"
   height="297mm"
   viewBox="0 0 210 297"
   version="1.1"
   id="svg8"
   inkscape:export-filename="C:\Users\Taribo\Documents\GW logo copa.png"
   inkscape:export-xdpi="96"
   inkscape:export-ydpi="96"
   sodipodi:docname="The goodwines texto.svg"
   inkscape:version="0.92.3 (2405546, 2018-03-11)">
  <defs
     id="defs2" />
  <sodipodi:namedview
     id="base"
     pagecolor="#ffffff"
     bordercolor="#666666"
     borderopacity="1.0"
     inkscape:pageopacity="0.0"
     inkscape:pageshadow="2"
     inkscape:zoom="2"
     inkscape:cx="102.50383"
     inkscape:cy="1043.7188"
     inkscape:document-units="mm"
     inkscape:current-layer="g118"
     showgrid="false"
     inkscape:window-width="1920"
     inkscape:window-height="1017"
     inkscape:window-x="-8"
     inkscape:window-y="-8"
     inkscape:window-maximized="1" />
  <metadata
     id="metadata5">
    <rdf:RDF>
      <cc:Work
         rdf:about="">
        <dc:format>image/svg+xml</dc:format>
        <dc:type
           rdf:resource="http://purl.org/dc/dcmitype/StillImage" />
        <dc:title></dc:title>
      </cc:Work>
    </rdf:RDF>
  </metadata>
  <g
     inkscape:label="Capa 1"
     inkscape:groupmode="layer"
     id="layer1">
    <g
       id="g118"
       transform="translate(-56.025521,-7.6067708)">
      <path
         style="fill:#000000;stroke-width:0.07102383"
         d="m 62.307223,20.940783 c 0.02883,-0.0708 5.383412,-0.08878 26.439336,-0.08878 14.521751,0 29.620531,0.02125 33.552841,0.04723 l 7.14965,0.04723 v 3.77949 3.779489 l -4.98942,0.04843 c -2.74419,0.02664 -17.85361,0.03848 -33.576516,0.02632 L 62.29602,28.558082 62.28355,24.793819 c -0.0069,-2.070345 0.0038,-3.804214 0.02367,-3.853043 z m 4.113989,2.780086 c 0.06179,0.02371 0.461298,0.04311 0.887798,0.04311 h 0.775453 v 1.275931 c 0,1.188784 0.0094,1.280951 0.137378,1.349452 0.161243,0.08629 0.50013,0.09499 0.62443,0.01602 0.06223,-0.03953 0.09263,-0.419299 0.106536,-1.330609 l 0.01945,-1.275287 0.831296,-0.03551 c 0.469944,-0.02008 0.865681,-0.07003 0.910399,-0.114932 0.04351,-0.04368 0.06893,-0.203485 0.0565,-0.355119 l -0.0226,-0.275699 -2.219495,-0.01877 -2.219495,-0.01877 v 0.348531 c 0,0.252298 0.03102,0.360436 0.112345,0.391643 z m 4.833785,2.715354 c 0.103144,0.02589 0.270938,0.01783 0.372876,-0.0179 0.182181,-0.06386 0.185947,-0.07887 0.220853,-0.880245 l 0.03551,-0.815273 1.166523,-0.01957 c 0.641588,-0.01077 1.193532,0.0074 1.226541,0.04044 0.03301,0.03301 -0.199903,0.405247 -0.517582,0.827196 -0.4437,0.589332 -0.555155,0.781397 -0.48079,0.828512 0.113207,0.07172 0.540818,0.07486 0.714227,0.0052 0.202435,-0.08127 1.406761,-1.71454 1.406761,-1.907808 0,-0.523447 -0.235546,-0.59079 -2.066398,-0.59079 h -1.477011 l -0.02165,-0.337363 c -0.02155,-0.335896 -0.02284,-0.337462 -0.295456,-0.359852 -0.492491,-0.04045 -0.471942,-0.110853 -0.471942,1.616942 v 1.563401 z m 4.528016,-0.726169 c 0.136899,0.327648 0.517768,0.596735 0.96455,0.681465 0.452455,0.08581 2.83944,0.09382 2.97166,0.01 0.06035,-0.03827 0.08548,-0.169801 0.07102,-0.371787 -0.02185,-0.305422 -0.02873,-0.31338 -0.300907,-0.34808 -0.153199,-0.01953 -0.289928,-0.07016 -0.303843,-0.112512 -0.01391,-0.04235 0.09881,-0.234115 0.250506,-0.426143 0.418627,-0.529939 0.465697,-0.644495 0.364851,-0.887958 -0.131693,-0.317935 -0.42206,-0.368807 -1.934192,-0.338869 l -1.319152,0.02612 -0.300108,0.21271 c -0.520892,0.369199 -0.703869,0.981927 -0.464389,1.555083 z m 0.840113,-0.912201 c 0.124325,-0.08708 0.365685,-0.110563 1.136382,-0.110563 0.670297,0 0.97853,0.02486 0.97853,0.07892 0,0.07567 -0.524564,0.748957 -0.67375,0.864768 -0.0396,0.03074 -0.348347,0.04672 -0.686105,0.03551 -0.484892,-0.01609 -0.645539,-0.04885 -0.763506,-0.155681 -0.205672,-0.186259 -0.20117,-0.566135 0.0084,-0.712959 z m 6.768423,0.912307 c 0.169573,0.357348 0.503833,0.59569 0.955564,0.681359 0.500105,0.09484 3.024489,0.09314 3.20256,-0.0022 0.07556,-0.04044 0.34513,-0.348941 0.599034,-0.685557 0.509439,-0.675397 0.584604,-0.964577 0.319596,-1.229584 -0.135032,-0.135033 -0.236746,-0.142048 -2.059691,-0.142048 h -1.917643 v 0.34752 c 0,0.251375 0.03108,0.359448 0.112344,0.390631 0.06179,0.02371 0.748945,0.04311 1.527013,0.04311 0.817388,0 1.414667,0.02769 1.414667,0.06557 0,0.03607 -0.08428,0.165732 -0.187281,0.288146 l -0.187281,0.222571 -1.40348,-0.02181 c -1.761183,-0.02736 -1.702125,0.0062 -1.702125,-0.968288 0,-1.004661 -0.162567,-0.93565 2.20405,-0.93565 2.191992,0 2.154981,0.0083 2.115231,-0.474454 l -0.02234,-0.271246 -2.087106,-0.01884 -2.087106,-0.01884 -0.309553,0.181409 c -0.504444,0.295625 -0.673626,0.751264 -0.634813,1.70967 0.0145,0.358151 0.07045,0.674353 0.14836,0.838539 z m 5.648324,0.119825 c 0.133639,0.249707 0.541938,0.491444 0.962784,0.570022 0.236201,0.0441 0.852654,0.06547 1.413858,0.04901 1.134544,-0.03327 1.405341,-0.120886 1.763813,-0.570645 0.177601,-0.222829 0.212034,-0.331018 0.216791,-0.681159 0.0068,-0.501546 -0.189144,-0.84018 -0.630654,-1.08983 -0.24738,-0.13988 -0.410485,-0.165086 -1.226729,-0.189581 -1.607726,-0.04825 -2.07638,0.05983 -2.450567,0.565135 -0.251615,0.339784 -0.273169,0.928736 -0.0493,1.347045 z m 0.736505,-0.969317 c 0.09163,-0.125489 0.209467,-0.139878 1.31251,-0.160281 l 1.211841,-0.02242 0.17899,0.17899 c 0.213997,0.213997 0.226586,0.395028 0.04322,0.621478 -0.133044,0.164302 -0.160016,0.167672 -1.341996,0.167672 -1.086501,0 -1.221063,-0.01343 -1.355728,-0.1353 -0.17242,-0.156037 -0.194545,-0.450594 -0.04883,-0.650144 z m 4.096558,0.870559 c 0.103382,0.213558 0.249868,0.366896 0.479411,0.501835 0.328003,0.19282 0.340633,0.194312 1.644483,0.194312 1.303849,0 1.316479,-0.0015 1.644482,-0.194312 0.629101,-0.369822 0.801542,-1.134133 0.394613,-1.749043 -0.322814,-0.487804 -0.533087,-0.542479 -2.086297,-0.542479 h -1.361143 l -0.300569,0.213071 c -0.553569,0.392421 -0.706665,0.974074 -0.41498,1.576616 z m 0.819531,-0.896734 c 0.171308,-0.134752 0.28164,-0.147203 1.304363,-0.147203 1.022722,0 1.133054,0.01245 1.304362,0.147203 0.231118,0.181797 0.24804,0.485904 0.03763,0.676319 -0.134523,0.121742 -0.269,0.1353 -1.341996,0.1353 -1.072997,0 -1.207474,-0.01356 -1.341996,-0.1353 -0.210407,-0.190415 -0.193485,-0.494522 0.03763,-0.676319 z m 4.130331,1.055579 c 0.340787,0.427876 0.627751,0.52312 1.680732,0.557837 1.48799,0.04906 2.05093,-0.129027 2.35346,-0.74452 0.11226,-0.228385 0.1331,-0.441226 0.13429,-1.371218 l 0.001,-1.10087 -0.34825,-0.02209 c -0.23051,-0.01462 -0.36821,0.0094 -0.4073,0.07102 -0.0325,0.05121 -0.0595,0.543603 -0.0601,1.094198 -0.001,1.336289 0.0715,1.271681 -1.4353,1.271681 -1.107336,0 -1.13853,-0.0041 -1.27097,-0.167672 -0.171763,-0.212118 -0.171823,-0.375705 -2.13e-4,-0.587966 0.129205,-0.159813 0.186628,-0.169336 1.225163,-0.203184 l 1.0896,-0.03551 0.0223,-0.271296 c 0.0366,-0.444693 -0.0296,-0.47468 -1.04312,-0.472718 -1.375823,0.0027 -1.76714,0.140143 -2.065225,0.725565 -0.207794,0.408096 -0.159279,0.901655 0.123533,1.256743 z m 5.457642,-1.293461 c 0.89495,1.598614 1.06709,1.832896 1.40337,1.910028 0.58156,0.133391 0.93562,-0.03483 1.28546,-0.610726 0.14279,-0.235048 0.28852,-0.427361 0.32385,-0.427361 0.0353,0 0.11811,0.08789 0.18395,0.195316 0.33494,0.546543 0.43419,0.664885 0.64006,0.763181 0.44076,0.210453 1.07845,0.08003 1.30059,-0.265994 0.30747,-0.478964 1.70719,-3.010388 1.70719,-3.087492 0,-0.06337 -0.12497,-0.09085 -0.41313,-0.09085 h -0.41312 l -0.66474,1.189649 c -0.83798,1.49971 -0.90289,1.593644 -1.08233,1.566463 -0.14672,-0.02222 -0.75629,-0.980805 -0.75901,-1.193588 -7.4e-4,-0.05859 0.1714,-0.410162 0.38255,-0.781262 0.21114,-0.371099 0.35853,-0.700526 0.32753,-0.732057 -0.031,-0.03153 -0.22828,-0.04751 -0.43839,-0.03551 -0.36817,0.02103 -0.38805,0.03276 -0.54815,0.32367 -0.0914,0.166019 -0.19265,0.301852 -0.22507,0.301852 -0.0324,0 -0.14324,-0.143824 -0.24626,-0.319608 -0.1857,-0.316876 -0.19061,-0.319607 -0.57494,-0.319607 -0.26345,0 -0.38722,0.02844 -0.38634,0.08878 7.1e-4,0.04883 0.16051,0.37246 0.35511,0.719181 0.19461,0.34672 0.35383,0.675807 0.35383,0.731304 0,0.14534 -0.62641,1.210554 -0.73679,1.25291 -0.0511,0.0196 -0.13043,0.01242 -0.17635,-0.01596 -0.0459,-0.02838 -0.42759,-0.656645 -0.84816,-1.396149 l -0.76468,-1.344554 -0.40607,-0.0213 c -0.24337,-0.01277 -0.40607,0.0078 -0.40607,0.05137 0,0.03997 0.37175,0.73671 0.82611,1.548312 z m 7.11877,-1.059122 c 0.0391,0.06163 0.17678,0.08565 0.40729,0.07102 0.29559,-0.01875 0.35159,-0.04553 0.37032,-0.17709 0.0292,-0.204952 -0.21363,-0.333164 -0.52154,-0.275399 -0.20405,0.03828 -0.29246,0.110246 -0.31061,0.252837 -0.002,0.01953 0.0221,0.07741 0.0545,0.128628 z m 0.0123,2.788018 c 0.0849,0.158699 0.55187,0.19381 0.69353,0.05215 0.11931,-0.119314 0.11931,-2.267087 0,-2.386401 -0.1336,-0.133601 -0.60532,-0.106909 -0.69034,0.03906 -0.0955,0.16394 -0.0982,2.117655 -0.003,2.295187 z m 1.23183,0.106059 c 0.0929,0.02333 0.26073,0.03193 0.37288,0.01911 l 0.20389,-0.0233 0.0357,-0.690716 c 0.0518,-1.002438 0.067,-1.013856 1.34887,-1.013856 1.25618,0 1.22993,-0.02009 1.27881,0.978786 l 0.0355,0.725786 h 0.35511 0.35512 V 25.57509 c 0,-0.963886 -0.0743,-1.149855 -0.58721,-1.468737 -0.25016,-0.155541 -0.33299,-0.164811 -1.47248,-0.164811 -1.1314,0 -1.2237,0.01014 -1.46639,0.161054 -0.49253,0.306281 -0.61407,0.617675 -0.6227,1.595433 -0.006,0.670877 -0.001,0.692371 0.16287,0.733539 z m 4.51188,-0.707404 c 0.28997,0.638503 0.69453,0.75115 2.59908,0.723692 l 1.42048,-0.02048 0.0221,-0.348248 c 0.0249,-0.392159 -0.0373,-0.465753 -0.39497,-0.467439 -0.12695,-5.68e-4 -0.23082,-0.02067 -0.23082,-0.04461 0,-0.02394 0.14382,-0.234848 0.3196,-0.468692 0.38938,-0.517989 0.42509,-0.814981 0.12626,-1.050042 -0.18606,-0.146359 -0.25005,-0.151236 -1.69816,-0.129447 l -1.50481,0.02264 -0.27275,0.218121 c -0.51098,0.408633 -0.65177,0.979291 -0.38601,1.564501 z m 0.69346,-0.736515 c 0.0883,-0.219352 0.4373,-0.300357 1.2942,-0.300357 0.46839,0 0.86953,0.02898 0.89142,0.0644 0.0219,0.03542 -0.10582,0.243163 -0.2838,0.461655 l -0.32361,0.397259 h -0.67082 c -0.57613,0 -0.69088,-0.02005 -0.81287,-0.142048 -0.13797,-0.137969 -0.16899,-0.295802 -0.0945,-0.480905 z m 3.65991,1.39001 c 0.11596,0.115961 2.55866,0.119103 2.77815,0.0036 0.3898,-0.205175 0.36256,-0.553059 -0.0888,-1.133882 -0.19275,-0.248047 -0.33405,-0.467544 -0.31399,-0.487771 0.0201,-0.02023 0.44144,-0.05275 0.93641,-0.07229 l 0.89994,-0.03551 0.0233,-0.203897 c 0.0128,-0.112144 0.004,-0.279938 -0.0191,-0.372875 l -0.0424,-0.168978 h -1.31582 c -1.30234,0 -1.3176,0.0018 -1.49014,0.174331 -0.25746,0.257454 -0.21907,0.469284 0.18078,0.997562 0.19532,0.258047 0.35512,0.483465 0.35512,0.500928 0,0.01746 -0.39722,0.03175 -0.88272,0.03175 -0.70778,0 -0.90485,0.02212 -0.99434,0.111609 -0.13176,0.131762 -0.14794,0.533882 -0.0264,0.655448 z"
         id="path122"
         inkscape:connector-curvature="0" />
    </g>
  </g>
</svg>
