<?xml version="1.0" encoding="UTF-8" standalone="no"?>
<!-- Created with Inkscape (http://www.inkscape.org/) -->

<svg
   xmlns:dc="http://purl.org/dc/elements/1.1/"
   xmlns:cc="http://creativecommons.org/ns#"
   xmlns:rdf="http://www.w3.org/1999/02/22-rdf-syntax-ns#"
   xmlns:svg="http://www.w3.org/2000/svg"
   xmlns="http://www.w3.org/2000/svg"
   xmlns:sodipodi="http://sodipodi.sourceforge.net/DTD/sodipodi-0.dtd"
   xmlns:inkscape="http://www.inkscape.org/namespaces/inkscape"
   version="1.1"
   id="svg10"
   width="272.64001"
   height="278.39999"
   viewBox="0 0 272.64001 278.39999"
   sodipodi:docname="Z naranja.svg"
   inkscape:version="0.92.3 (2405546, 2018-03-11)">
  <metadata
     id="metadata16">
    <rdf:RDF>
      <cc:Work
         rdf:about="">
        <dc:format>image/svg+xml</dc:format>
        <dc:type
           rdf:resource="http://purl.org/dc/dcmitype/StillImage" />
        <dc:title></dc:title>
      </cc:Work>
    </rdf:RDF>
  </metadata>
  <defs
     id="defs14" />
  <sodipodi:namedview
     pagecolor="#ffffff"
     bordercolor="#666666"
     borderopacity="1"
     objecttolerance="10"
     gridtolerance="10"
     guidetolerance="10"
     inkscape:pageopacity="0"
     inkscape:pageshadow="2"
     inkscape:window-width="1920"
     inkscape:window-height="1017"
     id="namedview12"
     showgrid="false"
     inkscape:zoom="8"
     inkscape:cx="68.867537"
     inkscape:cy="252.30671"
     inkscape:window-x="1912"
     inkscape:window-y="-8"
     inkscape:window-maximized="1"
     inkscape:current-layer="svg10" />
  <path
     style="fill:#ed7d31;fill-opacity:1;stroke-width:0.125"
     d="m 94.944535,16.136844 c -0.9889,-0.498334 -1.799685,-0.961355 -1.801745,-1.028936 -0.0021,-0.06758 0.917169,-0.770706 2.042732,-1.5625 l 2.046476,-1.439626 -2.74473,-0.07791 c -1.509603,-0.04285 -3.864642,-0.08504 -5.233421,-0.09375 l -2.48869,-0.01584 -3.26131,-1.66837 C 81.710126,9.332308 80.045662,8.459404 79.805037,8.310124 l -0.4375,-0.271417 13.5625,0.03354 c 10.525773,0.02603 13.623233,0.06831 13.833743,0.188828 0.32764,0.187585 0.5921,0.92083 0.47302,1.311497 -0.0475,0.155767 -0.17812,0.388831 -0.2903,0.517921 -0.45412,0.522569 -9.768335,6.953029 -10.070515,6.952603 -0.0734,-1.04e-4 -0.942548,-0.407916 -1.93145,-0.90625 z"
     id="path4677"
     inkscape:connector-curvature="0" />
</svg>
