<?xml version="1.0" encoding="UTF-8" standalone="no"?>
<!-- Created with Inkscape (http://www.inkscape.org/) -->

<svg
   xmlns:dc="http://purl.org/dc/elements/1.1/"
   xmlns:cc="http://creativecommons.org/ns#"
   xmlns:rdf="http://www.w3.org/1999/02/22-rdf-syntax-ns#"
   xmlns:svg="http://www.w3.org/2000/svg"
   xmlns="http://www.w3.org/2000/svg"
   xmlns:sodipodi="http://sodipodi.sourceforge.net/DTD/sodipodi-0.dtd"
   xmlns:inkscape="http://www.inkscape.org/namespaces/inkscape"
   version="1.1"
   id="svg10"
   width="272.64001"
   height="278.39999"
   viewBox="0 0 272.64001 278.39999"
   sodipodi:docname="Z negra.svg"
   inkscape:version="0.92.3 (2405546, 2018-03-11)">
  <metadata
     id="metadata16">
    <rdf:RDF>
      <cc:Work
         rdf:about="">
        <dc:format>image/svg+xml</dc:format>
        <dc:type
           rdf:resource="http://purl.org/dc/dcmitype/StillImage" />
        <dc:title></dc:title>
      </cc:Work>
    </rdf:RDF>
  </metadata>
  <defs
     id="defs14" />
  <sodipodi:namedview
     pagecolor="#ffffff"
     bordercolor="#666666"
     borderopacity="1"
     objecttolerance="10"
     gridtolerance="10"
     guidetolerance="10"
     inkscape:pageopacity="0"
     inkscape:pageshadow="2"
     inkscape:window-width="1920"
     inkscape:window-height="1017"
     id="namedview12"
     showgrid="false"
     inkscape:zoom="8"
     inkscape:cx="68.867537"
     inkscape:cy="252.30671"
     inkscape:window-x="1912"
     inkscape:window-y="-8"
     inkscape:window-maximized="1"
     inkscape:current-layer="svg10" />
  <path
     style="fill:#000000;fill-opacity:1;stroke-width:0.125"
     d="m 33.09525,30.672665 c -5.206763,-0.06452 -5.409499,-0.07601 -5.74327,-0.325349 -0.740958,-0.553529 -0.68877,-1.570195 0.114145,-2.223642 0.901829,-0.733948 9.236723,-6.455392 9.404096,-6.455392 0.284727,0 4.200494,1.998504 4.132219,2.108976 -0.03653,0.05911 -0.830701,0.632401 -1.764826,1.273989 -0.934125,0.641588 -1.721075,1.203199 -1.748778,1.248023 -0.0277,0.04483 2.043046,0.121273 4.601666,0.169885 l 4.652035,0.08839 3.3125,1.728542 c 1.821875,0.950698 3.552371,1.866513 3.845548,2.035144 l 0.533049,0.306603 -3.959684,0.08273 c -4.096126,0.08558 -8.123893,0.0768 -17.3787,-0.03789 z"
     id="path4679"
     inkscape:connector-curvature="0" />
</svg>
