<?xml version="1.0" encoding="UTF-8" standalone="no"?>
<!-- Created with Inkscape (http://www.inkscape.org/) -->

<svg
   xmlns:dc="http://purl.org/dc/elements/1.1/"
   xmlns:cc="http://creativecommons.org/ns#"
   xmlns:rdf="http://www.w3.org/1999/02/22-rdf-syntax-ns#"
   xmlns:svg="http://www.w3.org/2000/svg"
   xmlns="http://www.w3.org/2000/svg"
   xmlns:sodipodi="http://sodipodi.sourceforge.net/DTD/sodipodi-0.dtd"
   xmlns:inkscape="http://www.inkscape.org/namespaces/inkscape"
   version="1.1"
   id="svg10"
   width="272.64001"
   height="278.39999"
   viewBox="0 0 272.64001 278.39999"
   sodipodi:docname="Z black.svg"
   inkscape:version="0.92.3 (2405546, 2018-03-11)">
  <metadata
     id="metadata16">
    <rdf:RDF>
      <cc:Work
         rdf:about="">
        <dc:format>image/svg+xml</dc:format>
        <dc:type
           rdf:resource="http://purl.org/dc/dcmitype/StillImage" />
        <dc:title></dc:title>
      </cc:Work>
    </rdf:RDF>
  </metadata>
  <defs
     id="defs14" />
  <sodipodi:namedview
     pagecolor="#ffffff"
     bordercolor="#666666"
     borderopacity="1"
     objecttolerance="10"
     gridtolerance="10"
     guidetolerance="10"
     inkscape:pageopacity="0"
     inkscape:pageshadow="2"
     inkscape:window-width="1920"
     inkscape:window-height="1017"
     id="namedview12"
     showgrid="false"
     inkscape:zoom="8"
     inkscape:cx="68.867537"
     inkscape:cy="222.30671"
     inkscape:window-x="1912"
     inkscape:window-y="-8"
     inkscape:window-maximized="1"
     inkscape:current-layer="svg10" />
  <path
     id="path4675"
     style="fill:#ed7d31;stroke-width:0.17571893;fill-opacity:1"
     d="m 55.361328,18.234375 -13.75,0.0039 0.964844,0.539063 c 0.531549,0.296398 2.23297,1.183546 3.779297,1.972656 l 2.810547,1.435547 5.236328,0.08789 5.236328,0.08789 -2.117188,1.480469 c -1.164319,0.81445 -2.117187,1.504816 -2.117187,1.535156 0,0.03034 0.849734,0.488198 1.888672,1.015625 1.038938,0.527427 1.994,0.961797 2.121093,0.966797 0.229788,0.009 8.226373,-5.474708 9.652344,-6.619141 0.617181,-0.495329 0.746094,-0.70458 0.746094,-1.203125 0,-0.36896 -0.136617,-0.740132 -0.351562,-0.955078 -0.345507,-0.345554 -0.58172,-0.350756 -14.09961,-0.347656 z m -4.228516,10.126953 c -0.62265,0.362448 -9.232252,6.321284 -9.566406,6.621094 -0.272424,0.244423 -0.394531,0.554079 -0.394531,0.99414 0,0.787499 0.280311,1.191808 0.966797,1.396485 0.635189,0.189384 26.797569,0.244717 26.792969,0.05664 -0.0018,-0.07249 -1.761568,-1.042875 -3.910157,-2.154297 l -3.90625,-2.019532 -4.638672,-0.08789 -4.636718,-0.08789 1.884765,-1.294922 1.886719,-1.294922 -2.134766,-1.125 c -1.173681,-0.618959 -2.22838,-1.071066 -2.34375,-1.003906 z" />
  <path
     style="fill:#ed7d31;fill-opacity:1;stroke-width:0.125"
     d="m 57.444535,26.386844 c -0.9889,-0.498334 -1.799685,-0.961355 -1.801745,-1.028936 -0.0021,-0.06758 0.917169,-0.770706 2.042732,-1.5625 l 2.046476,-1.439626 -2.74473,-0.07791 c -1.509603,-0.04285 -3.864642,-0.08504 -5.233421,-0.09375 l -2.48869,-0.01584 -3.26131,-1.66837 c -1.793721,-0.917604 -3.458185,-1.790508 -3.69881,-1.939788 l -0.4375,-0.271417 13.5625,0.03354 c 10.525775,0.02603 13.623232,0.06831 13.833738,0.188828 0.327648,0.187585 0.592109,0.92083 0.473023,1.311497 -0.04748,0.155767 -0.178115,0.388831 -0.290296,0.517921 -0.454122,0.522569 -9.768337,6.953029 -10.070517,6.952603 -0.0734,-1.04e-4 -0.942548,-0.407916 -1.93145,-0.90625 z"
     id="path4677"
     inkscape:connector-curvature="0" />
  <path
     id="path4679"
     style="fill:#000000;fill-opacity:1;stroke-width:0.125"
     d="m 51.246094,28.417969 c -0.167373,0 -8.502468,5.72113 -9.404297,6.455078 -0.802915,0.653447 -0.856192,1.67108 -0.115235,2.224609 0.333772,0.249339 0.537378,0.259699 5.744141,0.324219 9.254807,0.11469 13.28278,0.124643 17.378906,0.03906 l 3.958985,-0.08398 -0.533203,-0.306641 c -0.293177,-0.168631 -2.023828,-1.084458 -3.845703,-2.035156 l -3.3125,-1.728515 -4.652344,-0.08789 c -2.55862,-0.04861 -4.629263,-0.125092 -4.601563,-0.169922 0.0277,-0.04482 0.815875,-0.606459 1.75,-1.248047 0.934125,-0.641588 1.727142,-1.214327 1.763672,-1.273437 0.06827,-0.110472 -3.846132,-2.109375 -4.130859,-2.109375 z" />
  <path
     style="fill:#000000;fill-opacity:1;stroke-width:0.125"
     d="m 57.330883,26.345684 -1.849153,-0.934449 0.349153,-0.289323 c 0.192035,-0.159128 1.094065,-0.809139 2.004511,-1.444469 0.910446,-0.63533 1.682921,-1.199744 1.716609,-1.254252 0.03369,-0.05451 -2.286223,-0.139364 -5.155358,-0.188569 l -5.216608,-0.08946 -2.875,-1.4821 c -1.58125,-0.815155 -3.240625,-1.681875 -3.6875,-1.926044 l -0.8125,-0.443944 13.667115,0.03136 13.667115,0.03136 0.301635,0.350721 c 0.37988,0.441698 0.407568,1.175932 0.05848,1.550639 -0.74945,0.804439 -9.754566,7.044269 -10.144837,7.029566 -0.09598,-0.0036 -1.006624,-0.427077 -2.023659,-0.941024 z"
     id="path4734"
     inkscape:connector-curvature="0" />
</svg>
