<?xml version="1.0" encoding="UTF-8" standalone="no"?>
<!-- Created with Inkscape (http://www.inkscape.org/) -->

<svg
   xmlns:dc="http://purl.org/dc/elements/1.1/"
   xmlns:cc="http://creativecommons.org/ns#"
   xmlns:rdf="http://www.w3.org/1999/02/22-rdf-syntax-ns#"
   xmlns:svg="http://www.w3.org/2000/svg"
   xmlns="http://www.w3.org/2000/svg"
   xmlns:sodipodi="http://sodipodi.sourceforge.net/DTD/sodipodi-0.dtd"
   xmlns:inkscape="http://www.inkscape.org/namespaces/inkscape"
   version="1.1"
   id="svg10"
   width="272.64001"
   height="278.39999"
   viewBox="0 0 272.64001 278.39999"
   sodipodi:docname="ZcodeTeam Black.svg"
   inkscape:version="0.92.3 (2405546, 2018-03-11)">
  <metadata
     id="metadata16">
    <rdf:RDF>
      <cc:Work
         rdf:about="">
        <dc:format>image/svg+xml</dc:format>
        <dc:type
           rdf:resource="http://purl.org/dc/dcmitype/StillImage" />
        <dc:title></dc:title>
      </cc:Work>
    </rdf:RDF>
  </metadata>
  <defs
     id="defs14" />
  <sodipodi:namedview
     pagecolor="#ffffff"
     bordercolor="#666666"
     borderopacity="1"
     objecttolerance="10"
     gridtolerance="10"
     guidetolerance="10"
     inkscape:pageopacity="0"
     inkscape:pageshadow="2"
     inkscape:window-width="1920"
     inkscape:window-height="1017"
     id="namedview12"
     showgrid="false"
     inkscape:zoom="8"
     inkscape:cx="68.867537"
     inkscape:cy="222.30671"
     inkscape:window-x="1912"
     inkscape:window-y="-8"
     inkscape:window-maximized="1"
     inkscape:current-layer="svg10" />
  <path
     style="fill:#000000;stroke-width:0.17571893"
     d="m 15.729888,46.87572 c -1.042473,-0.473145 -1.436029,-1.364623 -1.436029,-3.252876 0,-1.888252 0.393556,-2.779731 1.436029,-3.252875 0.678376,-0.307893 1.173706,-0.342027 5.013924,-0.345504 l 4.261184,-0.0039 v 0.790735 0.790736 h -4.27788 c -5.114404,0 -4.859504,-0.107598 -4.859504,2.051298 0,2.085818 -0.234844,1.990237 4.890036,1.990237 h 4.247348 v 0.790735 0.790735 l -4.261184,-0.0039 c -3.840218,-0.0035 -4.335548,-0.0376 -5.013924,-0.345496 z m 11.220506,0.04158 c -0.961314,-0.490187 -1.330382,-1.136011 -1.330382,-2.328004 0,-1.191992 0.369068,-1.837816 1.330382,-2.328003 0.499404,-0.25465 1.083717,-0.307169 3.414029,-0.306851 2.49574,3.51e-4 2.875823,0.0396 3.384196,0.349559 1.697242,1.034821 1.697242,3.535769 0,4.57059 -0.508373,0.30996 -0.888456,0.349219 -3.384196,0.34956 -2.330312,3.51e-4 -2.914625,-0.0522 -3.414029,-0.306851 z m 6.167766,-1.564503 c 0.400114,-0.362099 0.4146,-1.072079 0.03053,-1.49647 -0.255987,-0.282864 -0.592659,-0.321344 -2.811503,-0.321344 -2.286398,0 -2.553356,0.03267 -2.872127,0.351438 -0.193291,0.19329 -0.351438,0.509585 -0.351438,0.702875 0,0.193291 0.158147,0.509585 0.351438,0.702876 0.318373,0.318373 0.585729,0.351438 2.841596,0.351438 2.070528,0 2.54431,-0.04901 2.811503,-0.290813 z m 4.023932,1.564503 c -0.961314,-0.490187 -1.330382,-1.136011 -1.330382,-2.328004 0,-1.191992 0.369068,-1.837816 1.330382,-2.328003 0.483761,-0.246674 1.061456,-0.307289 2.930802,-0.307508 l 2.328276,-2.73e-4 v 0.790736 0.790735 h -2.196487 c -1.962195,0 -2.233973,0.03749 -2.547924,0.351438 -0.193291,0.19329 -0.351438,0.509585 -0.351438,0.702875 0,0.193291 0.158147,0.509585 0.351438,0.702876 0.316728,0.316728 0.585729,0.351438 2.723643,0.351438 3.164037,0 3.075081,0.08641 3.075081,-2.987222 v -2.284346 h 0.790735 0.790736 v 2.334973 c 0,2.075852 -0.04388,2.420537 -0.395368,3.106009 -0.638264,1.244728 -1.143132,1.412106 -4.258443,1.411784 -2.164725,-1.76e-4 -2.74672,-0.05544 -3.241051,-0.307508 z m 10.001702,-0.08759 c -0.945391,-0.643427 -1.295831,-1.249318 -1.295831,-2.240417 0,-0.991098 0.35044,-1.596989 1.295831,-2.240416 0.548283,-0.373158 0.755245,-0.395368 3.684284,-0.395368 3.32494,0 3.587677,0.06164 3.786415,0.888362 0.08645,0.359619 -0.06761,0.67462 -0.773439,1.58147 l -0.881393,1.132406 0.783057,0.05356 0.783058,0.05356 v 0.781108 0.781107 h -3.400534 c -3.23721,0 -3.428433,-0.01899 -3.981448,-0.395367 z m 4.528863,-2.139345 c 0.409471,-0.524282 0.744492,-0.998723 0.744492,-1.054313 0,-0.05559 -0.962425,-0.101072 -2.138721,-0.101072 -2.372624,0 -2.781409,0.15711 -2.781409,1.068996 0,0.838354 0.385602,1.039631 1.991703,1.039631 h 1.439444 z m 7.246092,-0.276791 V 41.602077 H 57.0737 55.228651 v -0.790736 -0.790735 h 4.656552 4.656552 v 0.790735 0.790736 h -1.932909 -1.932908 v 2.811502 2.811503 h -0.878594 -0.878595 z m 6.016767,2.461014 c -1.697243,-1.034821 -1.697243,-3.535769 0,-4.57059 0.51454,-0.313719 0.8894,-0.349241 3.691704,-0.349831 2.885206,-5.28e-4 3.145354,0.02569 3.470449,0.35078 0.53076,0.530761 0.434974,0.924317 -0.53204,2.185984 l -0.883478,1.152676 h 0.795618 0.795618 v 0.790735 0.790735 l -3.382589,-7.03e-4 c -3.06532,-5.27e-4 -3.436305,-0.03341 -3.955282,-0.349831 z m 4.599965,-2.285295 0.828316,-1.054313 h -2.238239 c -2.454082,0 -2.880928,0.151686 -2.880928,1.023782 0,0.85213 0.433766,1.084845 2.022081,1.084845 h 1.440456 z m 4.713138,2.285295 c -1.697242,-1.034821 -1.697242,-3.535769 0,-4.57059 0.506703,-0.30894 0.8886,-0.34925 3.314281,-0.349831 2.55444,-5.28e-4 2.78124,0.02633 3.322502,0.39471 1.103253,0.750868 1.296813,1.190787 1.374454,3.123838 l 0.07038,1.752362 h -0.89903 -0.899033 v -1.568918 c 0,-2.156859 0.05,-2.121179 -2.972539,-2.121179 -2.121565,0 -2.456172,0.03966 -2.711091,0.321344 -0.384069,0.424391 -0.369583,1.134371 0.03053,1.49647 0.263425,0.238398 0.72266,0.290813 2.547924,0.290813 h 2.22658 v 0.790735 0.790735 l -2.416135,-7.03e-4 c -2.100915,-5.27e-4 -2.490851,-0.04621 -2.988828,-0.349831 z m 8.392185,-1.193748 c 0,-1.866346 0.423172,-2.893901 1.40301,-3.406821 0.863288,-0.451909 3.70567,-0.455256 4.588032,-0.0054 0.593756,0.302715 0.638412,0.302752 1.135398,8.79e-4 0.406184,-0.246681 0.898719,-0.31438 2.292467,-0.315108 1.552507,-8.79e-4 1.847987,0.04866 2.356048,0.394443 1.103254,0.750868 1.296813,1.190788 1.374455,3.123838 l 0.07038,1.752363 h -0.899031 -0.899032 v -1.554236 c 0,-2.016471 -0.114627,-2.135823 -2.051299,-2.135823 -1.872749,0 -1.990237,0.127886 -1.990237,2.166393 v 1.523704 H 89.23026 88.439525 v -1.493611 c 0,-2.014656 -0.174558,-2.196486 -2.108627,-2.196486 -1.93407,0 -2.108627,0.18183 -2.108627,2.196486 v 1.493611 H 83.431539 82.640804 Z M 42.137795,37.373221 c -0.686486,-0.204677 -0.966658,-0.609607 -0.966658,-1.397106 0,-0.440061 0.122944,-0.748967 0.395368,-0.99339 0.334154,-0.29981 8.944144,-6.259256 9.566795,-6.621704 0.115369,-0.06716 1.170048,0.384317 2.343731,1.003276 l 2.133967,1.125378 -1.88584,1.295017 -1.885838,1.295017 4.637957,0.08786 4.637959,0.08786 3.906527,2.020768 c 2.148589,1.111422 3.907974,2.080073 3.909746,2.152557 0.0046,0.188077 -26.158525,0.133854 -26.793714,-0.05553 z M 57.293349,26.391779 c -1.038938,-0.527427 -1.888979,-0.983783 -1.888979,-1.014123 0,-0.03034 0.952625,-0.721532 2.116944,-1.535982 l 2.116942,-1.48082 -5.235953,-0.08786 -5.235955,-0.08786 -2.811502,-1.434749 c -1.546327,-0.78911 -3.246408,-1.677255 -3.777957,-1.973653 l -0.966454,-0.538907 13.750006,-0.0032 c 13.51789,-0.0031 13.755938,0.0027 14.101444,0.348254 0.214946,0.214946 0.351437,0.585729 0.351437,0.954689 0,0.498545 -0.129624,0.707283 -0.746805,1.202612 -1.425971,1.144433 -9.423321,6.628594 -9.653109,6.619592 -0.127094,-0.005 -1.081121,-0.440584 -2.120059,-0.968011 z"
     id="path4675"
     inkscape:connector-curvature="0" />
</svg>
