<?xml version="1.0" encoding="UTF-8" standalone="no"?>
<!-- Created with Inkscape (http://www.inkscape.org/) -->

<svg
   xmlns:dc="http://purl.org/dc/elements/1.1/"
   xmlns:cc="http://creativecommons.org/ns#"
   xmlns:rdf="http://www.w3.org/1999/02/22-rdf-syntax-ns#"
   xmlns:svg="http://www.w3.org/2000/svg"
   xmlns="http://www.w3.org/2000/svg"
   xmlns:sodipodi="http://sodipodi.sourceforge.net/DTD/sodipodi-0.dtd"
   xmlns:inkscape="http://www.inkscape.org/namespaces/inkscape"
   version="1.1"
   id="svg10"
   width="272.64001"
   height="278.39999"
   viewBox="0 0 272.64001 278.39999"
   sodipodi:docname="ZcodeTeam Color.svg"
   inkscape:version="0.92.3 (2405546, 2018-03-11)">
  <metadata
     id="metadata16">
    <rdf:RDF>
      <cc:Work
         rdf:about="">
        <dc:format>image/svg+xml</dc:format>
        <dc:type
           rdf:resource="http://purl.org/dc/dcmitype/StillImage" />
        <dc:title></dc:title>
      </cc:Work>
    </rdf:RDF>
  </metadata>
  <defs
     id="defs14" />
  <sodipodi:namedview
     pagecolor="#ffffff"
     bordercolor="#666666"
     borderopacity="1"
     objecttolerance="10"
     gridtolerance="10"
     guidetolerance="10"
     inkscape:pageopacity="0"
     inkscape:pageshadow="2"
     inkscape:window-width="1920"
     inkscape:window-height="1017"
     id="namedview12"
     showgrid="false"
     inkscape:zoom="8"
     inkscape:cx="68.867537"
     inkscape:cy="222.30671"
     inkscape:window-x="1912"
     inkscape:window-y="-8"
     inkscape:window-maximized="1"
     inkscape:current-layer="svg10" />
  <path
     style="fill:#ed7d31;stroke-width:0.17571893;fill-opacity:1"
     d="m 15.729888,46.87572 c -1.042473,-0.473145 -1.436029,-1.364623 -1.436029,-3.252876 0,-1.888252 0.393556,-2.779731 1.436029,-3.252875 0.678376,-0.307893 1.173706,-0.342027 5.013924,-0.345504 l 4.261184,-0.0039 v 0.790735 0.790736 h -4.27788 c -5.114404,0 -4.859504,-0.107598 -4.859504,2.051298 0,2.085818 -0.234844,1.990237 4.890036,1.990237 h 4.247348 v 0.790735 0.790735 l -4.261184,-0.0039 c -3.840218,-0.0035 -4.335548,-0.0376 -5.013924,-0.345496 z m 11.220506,0.04158 c -0.961314,-0.490187 -1.330382,-1.136011 -1.330382,-2.328004 0,-1.191992 0.369068,-1.837816 1.330382,-2.328003 0.499404,-0.25465 1.083717,-0.307169 3.414029,-0.306851 2.49574,3.51e-4 2.875823,0.0396 3.384196,0.349559 1.697242,1.034821 1.697242,3.535769 0,4.57059 -0.508373,0.30996 -0.888456,0.349219 -3.384196,0.34956 -2.330312,3.51e-4 -2.914625,-0.0522 -3.414029,-0.306851 z m 6.167766,-1.564503 c 0.400114,-0.362099 0.4146,-1.072079 0.03053,-1.49647 -0.255987,-0.282864 -0.592659,-0.321344 -2.811503,-0.321344 -2.286398,0 -2.553356,0.03267 -2.872127,0.351438 -0.193291,0.19329 -0.351438,0.509585 -0.351438,0.702875 0,0.193291 0.158147,0.509585 0.351438,0.702876 0.318373,0.318373 0.585729,0.351438 2.841596,0.351438 2.070528,0 2.54431,-0.04901 2.811503,-0.290813 z m 4.023932,1.564503 c -0.961314,-0.490187 -1.330382,-1.136011 -1.330382,-2.328004 0,-1.191992 0.369068,-1.837816 1.330382,-2.328003 0.483761,-0.246674 1.061456,-0.307289 2.930802,-0.307508 l 2.328276,-2.73e-4 v 0.790736 0.790735 h -2.196487 c -1.962195,0 -2.233973,0.03749 -2.547924,0.351438 -0.193291,0.19329 -0.351438,0.509585 -0.351438,0.702875 0,0.193291 0.158147,0.509585 0.351438,0.702876 0.316728,0.316728 0.585729,0.351438 2.723643,0.351438 3.164037,0 3.075081,0.08641 3.075081,-2.987222 v -2.284346 h 0.790735 0.790736 v 2.334973 c 0,2.075852 -0.04388,2.420537 -0.395368,3.106009 -0.638264,1.244728 -1.143132,1.412106 -4.258443,1.411784 -2.164725,-1.76e-4 -2.74672,-0.05544 -3.241051,-0.307508 z m 10.001702,-0.08759 c -0.945391,-0.643427 -1.295831,-1.249318 -1.295831,-2.240417 0,-0.991098 0.35044,-1.596989 1.295831,-2.240416 0.548283,-0.373158 0.755245,-0.395368 3.684284,-0.395368 3.32494,0 3.587677,0.06164 3.786415,0.888362 0.08645,0.359619 -0.06761,0.67462 -0.773439,1.58147 l -0.881393,1.132406 0.783057,0.05356 0.783058,0.05356 v 0.781108 0.781107 h -3.400534 c -3.23721,0 -3.428433,-0.01899 -3.981448,-0.395367 z m 4.528863,-2.139345 c 0.409471,-0.524282 0.744492,-0.998723 0.744492,-1.054313 0,-0.05559 -0.962425,-0.101072 -2.138721,-0.101072 -2.372624,0 -2.781409,0.15711 -2.781409,1.068996 0,0.838354 0.385602,1.039631 1.991703,1.039631 h 1.439444 z m 7.246092,-0.276791 V 41.602077 H 57.0737 55.228651 v -0.790736 -0.790735 h 4.656552 4.656552 v 0.790735 0.790736 h -1.932909 -1.932908 v 2.811502 2.811503 h -0.878594 -0.878595 z m 6.016767,2.461014 c -1.697243,-1.034821 -1.697243,-3.535769 0,-4.57059 0.51454,-0.313719 0.8894,-0.349241 3.691704,-0.349831 2.885206,-5.28e-4 3.145354,0.02569 3.470449,0.35078 0.53076,0.530761 0.434974,0.924317 -0.53204,2.185984 l -0.883478,1.152676 h 0.795618 0.795618 v 0.790735 0.790735 l -3.382589,-7.03e-4 c -3.06532,-5.27e-4 -3.436305,-0.03341 -3.955282,-0.349831 z m 4.599965,-2.285295 0.828316,-1.054313 h -2.238239 c -2.454082,0 -2.880928,0.151686 -2.880928,1.023782 0,0.85213 0.433766,1.084845 2.022081,1.084845 h 1.440456 z m 4.713138,2.285295 c -1.697242,-1.034821 -1.697242,-3.535769 0,-4.57059 0.506703,-0.30894 0.8886,-0.34925 3.314281,-0.349831 2.55444,-5.28e-4 2.78124,0.02633 3.322502,0.39471 1.103253,0.750868 1.296813,1.190787 1.374454,3.123838 l 0.07038,1.752362 h -0.89903 -0.899033 v -1.568918 c 0,-2.156859 0.05,-2.121179 -2.972539,-2.121179 -2.121565,0 -2.456172,0.03966 -2.711091,0.321344 -0.384069,0.424391 -0.369583,1.134371 0.03053,1.49647 0.263425,0.238398 0.72266,0.290813 2.547924,0.290813 h 2.22658 v 0.790735 0.790735 l -2.416135,-7.03e-4 c -2.100915,-5.27e-4 -2.490851,-0.04621 -2.988828,-0.349831 z m 8.392185,-1.193748 c 0,-1.866346 0.423172,-2.893901 1.40301,-3.406821 0.863288,-0.451909 3.70567,-0.455256 4.588032,-0.0054 0.593756,0.302715 0.638412,0.302752 1.135398,8.79e-4 0.406184,-0.246681 0.898719,-0.31438 2.292467,-0.315108 1.552507,-8.79e-4 1.847987,0.04866 2.356048,0.394443 1.103254,0.750868 1.296813,1.190788 1.374455,3.123838 l 0.07038,1.752363 h -0.899031 -0.899032 v -1.554236 c 0,-2.016471 -0.114627,-2.135823 -2.051299,-2.135823 -1.872749,0 -1.990237,0.127886 -1.990237,2.166393 v 1.523704 H 89.23026 88.439525 v -1.493611 c 0,-2.014656 -0.174558,-2.196486 -2.108627,-2.196486 -1.93407,0 -2.108627,0.18183 -2.108627,2.196486 v 1.493611 H 83.431539 82.640804 Z M 42.137795,37.373221 c -0.686486,-0.204677 -0.966658,-0.609607 -0.966658,-1.397106 0,-0.440061 0.122944,-0.748967 0.395368,-0.99339 0.334154,-0.29981 8.944144,-6.259256 9.566795,-6.621704 0.115369,-0.06716 1.170048,0.384317 2.343731,1.003276 l 2.133967,1.125378 -1.88584,1.295017 -1.885838,1.295017 4.637957,0.08786 4.637959,0.08786 3.906527,2.020768 c 2.148589,1.111422 3.907974,2.080073 3.909746,2.152557 0.0046,0.188077 -26.158525,0.133854 -26.793714,-0.05553 z M 57.293349,26.391779 c -1.038938,-0.527427 -1.888979,-0.983783 -1.888979,-1.014123 0,-0.03034 0.952625,-0.721532 2.116944,-1.535982 l 2.116942,-1.48082 -5.235953,-0.08786 -5.235955,-0.08786 -2.811502,-1.434749 c -1.546327,-0.78911 -3.246408,-1.677255 -3.777957,-1.973653 l -0.966454,-0.538907 13.750006,-0.0032 c 13.51789,-0.0031 13.755938,0.0027 14.101444,0.348254 0.214946,0.214946 0.351437,0.585729 0.351437,0.954689 0,0.498545 -0.129624,0.707283 -0.746805,1.202612 -1.425971,1.144433 -9.423321,6.628594 -9.653109,6.619592 -0.127094,-0.005 -1.081121,-0.440584 -2.120059,-0.968011 z"
     id="path4675"
     inkscape:connector-curvature="0" />
  <path
     style="fill:#ed7d31;fill-opacity:1;stroke-width:0.125"
     d="m 57.444535,26.386844 c -0.9889,-0.498334 -1.799685,-0.961355 -1.801745,-1.028936 -0.0021,-0.06758 0.917169,-0.770706 2.042732,-1.5625 l 2.046476,-1.439626 -2.74473,-0.07791 c -1.509603,-0.04285 -3.864642,-0.08504 -5.233421,-0.09375 l -2.48869,-0.01584 -3.26131,-1.66837 c -1.793721,-0.917604 -3.458185,-1.790508 -3.69881,-1.939788 l -0.4375,-0.271417 13.5625,0.03354 c 10.525775,0.02603 13.623232,0.06831 13.833738,0.188828 0.327648,0.187585 0.592109,0.92083 0.473023,1.311497 -0.04748,0.155767 -0.178115,0.388831 -0.290296,0.517921 -0.454122,0.522569 -9.768337,6.953029 -10.070517,6.952603 -0.0734,-1.04e-4 -0.942548,-0.407916 -1.93145,-0.90625 z"
     id="path4677"
     inkscape:connector-curvature="0" />
  <path
     style="fill:#000000;fill-opacity:1;stroke-width:0.125"
     d="m 47.47025,37.422665 c -5.206763,-0.06452 -5.409499,-0.07601 -5.74327,-0.325349 -0.740958,-0.553529 -0.68877,-1.570195 0.114145,-2.223642 0.901829,-0.733948 9.236723,-6.455392 9.404096,-6.455392 0.284727,0 4.200494,1.998504 4.132219,2.108976 -0.03653,0.05911 -0.830701,0.632401 -1.764826,1.273989 -0.934125,0.641588 -1.721075,1.203199 -1.748778,1.248023 -0.0277,0.04483 2.043046,0.121273 4.601666,0.169885 l 4.652035,0.08839 3.3125,1.728542 c 1.821875,0.950698 3.552371,1.866513 3.845548,2.035144 l 0.533049,0.306603 -3.959684,0.08273 c -4.096126,0.08558 -8.123893,0.0768 -17.3787,-0.03789 z"
     id="path4679"
     inkscape:connector-curvature="0" />
  <path
     style="fill:#000000;fill-opacity:1;stroke-width:0.125"
     d="m 27.393017,46.995533 c -1.119318,-0.310923 -1.715037,-1.152821 -1.710235,-2.416986 0.0039,-1.038117 0.329212,-1.675993 1.079521,-2.117016 l 0.605234,-0.355749 h 3.019647 3.019647 l 0.480353,0.382246 c 1.409812,1.121873 1.379166,3.239453 -0.06138,4.241082 l -0.54173,0.376672 -2.64577,0.02814 c -1.896952,0.02018 -2.815451,-0.01899 -3.245291,-0.138392 z m 5.798299,-1.684849 c 0.340499,-0.420913 0.309637,-1.082849 -0.0681,-1.460584 -0.305428,-0.305427 -0.31822,-0.306818 -2.822116,-0.306818 h -2.515297 l -0.365385,0.365385 c -0.399212,0.399212 -0.444283,0.663781 -0.190946,1.120856 0.328654,0.592962 0.580188,0.640043 3.243091,0.607017 2.43822,-0.03024 2.484053,-0.03573 2.71875,-0.325856 z"
     id="path4681"
     inkscape:connector-curvature="0" />
  <path
     style="fill:#000000;fill-opacity:1;stroke-width:0.125"
     d="m 37.742537,47.058431 c -1.338639,-0.350994 -1.831855,-1.036823 -1.827102,-2.540628 0.003,-0.946331 0.189885,-1.409247 0.763994,-1.892328 0.582551,-0.490184 1.122812,-0.580737 3.469358,-0.581496 l 2.15625,-6.97e-4 v 0.75 0.75 h -2.070718 c -2.085097,0 -2.441876,0.06303 -2.769057,0.489168 -0.244507,0.318462 -0.183768,0.844496 0.14117,1.222612 l 0.301396,0.35072 2.167354,0.04073 c 2.451017,0.04606 2.979941,-0.04754 3.225576,-0.570831 0.103477,-0.220443 0.184723,-1.122988 0.22515,-2.501151 l 0.06325,-2.15625 h 0.670439 0.670439 v 2.231347 c 0,2.319269 -0.06465,2.717757 -0.572816,3.530632 -0.505157,0.808063 -0.90671,0.909546 -3.739684,0.945111 -1.375,0.01726 -2.66875,-0.01286 -2.875,-0.06694 z"
     id="path4683"
     inkscape:connector-curvature="0" />
  <path
     style="fill:#000000;fill-opacity:1;stroke-width:0.125"
     d="m 47.633132,46.984644 c -0.588107,-0.20963 -1.296279,-0.86024 -1.530501,-1.406097 -0.09493,-0.221229 -0.171669,-0.699354 -0.170538,-1.0625 0.0026,-0.829675 0.361384,-1.485982 1.104125,-2.019635 l 0.543681,-0.39063 h 3.248671 3.248671 l 0.238898,0.295098 c 0.403261,0.498128 0.298591,0.871584 -0.57462,2.050207 -0.446315,0.602418 -0.811482,1.12273 -0.811482,1.15625 0,0.03352 0.3375,0.06094 0.75,0.06094 h 0.75 v 0.75 0.75 l -3.15625,-0.0055 c -2.356234,-0.0041 -3.279033,-0.04925 -3.640655,-0.178152 z m 4.025061,-2.197217 c 1.027995,-1.373691 1.151338,-1.271193 -1.472051,-1.22327 -2.220079,0.04056 -2.284736,0.04921 -2.517354,0.336723 -0.453541,0.56058 -0.204634,1.559139 0.418598,1.67933 0.154083,0.02971 0.872232,0.06169 1.595887,0.07105 l 1.315737,0.01702 z"
     id="path4685"
     inkscape:connector-curvature="0" />
  <path
     style="fill:#000000;fill-opacity:1;stroke-width:0.125"
     d="m 65.867537,47.106848 c -0.06875,-0.02293 -0.281106,-0.07617 -0.471902,-0.118304 -0.190796,-0.04213 -0.570933,-0.279006 -0.844749,-0.526382 -0.593444,-0.536141 -0.939809,-1.515779 -0.809217,-2.288743 0.12769,-0.75579 0.701168,-1.55352 1.338656,-1.862123 0.518996,-0.251241 0.741769,-0.268014 3.55982,-0.268014 2.851994,0 3.023069,0.01329 3.335534,0.259073 0.567249,0.446198 0.459432,0.93338 -0.483142,2.183116 -0.446875,0.592501 -0.8125,1.10102 -0.8125,1.130043 0,0.02902 0.3375,0.05277 0.75,0.05277 h 0.75 v 0.75 0.75 l -3.09375,-0.0099 c -1.701563,-0.0054 -3.15,-0.02863 -3.21875,-0.05157 z m 3.724794,-2.501066 0.8351,-1.0625 -2.154947,0.01246 c -1.185221,0.0069 -2.294727,0.05138 -2.465569,0.09894 -0.44655,0.124327 -0.683134,0.612041 -0.575418,1.186216 0.123937,0.660639 0.541466,0.816319 2.205887,0.822489 l 1.319847,0.0049 z"
     id="path4687"
     inkscape:connector-curvature="0" />
  <path
     style="fill:#000000;fill-opacity:1;stroke-width:0.125"
     d="m 74.765659,47.041175 c -1.734713,-0.520689 -2.295043,-3.093791 -0.944156,-4.335677 0.639438,-0.587843 1.058747,-0.662216 3.733534,-0.662216 2.752398,0 2.993317,0.04752 3.790706,0.747634 0.579631,0.508922 0.787124,1.220458 0.884642,3.033616 l 0.07227,1.34375 h -0.87381 -0.87381 V 45.6626 c 0,-1.431958 -0.01502,-1.520704 -0.306819,-1.8125 -0.304329,-0.304329 -0.326178,-0.306818 -2.693181,-0.306818 -2.367004,0 -2.388853,0.0025 -2.693182,0.306818 -0.377722,0.377722 -0.408594,1.039663 -0.06812,1.460584 0.23258,0.287534 0.296663,0.296101 2.5,0.334239 l 2.261302,0.03914 v 0.74211 0.742109 l -2.21875,-0.01074 c -1.220313,-0.0059 -2.377095,-0.05827 -2.570628,-0.116363 z"
     id="path4689"
     inkscape:connector-curvature="0" />
  <path
     style="fill:#000000;fill-opacity:1;stroke-width:0.125"
     d="m 82.710348,45.624214 c 0.09642,-2.232633 0.573646,-3.113676 1.876592,-3.464522 0.820677,-0.220986 3.547677,-0.09468 4.115793,0.190625 0.453036,0.227514 0.469929,0.226924 1.085673,-0.03796 0.534467,-0.229922 0.863819,-0.269073 2.263533,-0.269073 1.852901,0 2.280132,0.133185 2.978423,0.928495 0.491647,0.559955 0.616018,1.039449 0.723737,2.790255 l 0.08652,1.40625 h -0.89279 -0.892791 V 45.6626 c 0,-1.431958 -0.01502,-1.520704 -0.306819,-1.8125 -0.288532,-0.288532 -0.388687,-0.306818 -1.680529,-0.306818 -1.255781,0 -1.402591,0.02484 -1.71011,0.289358 -0.323086,0.277907 -0.338881,0.349635 -0.399129,1.8125 l -0.06273,1.523142 h -0.722646 -0.722647 l -0.04144,-1.558388 c -0.05419,-2.037569 -0.0092,-1.990752 -1.964418,-2.045405 -1.422898,-0.03977 -1.490565,-0.02984 -1.839631,0.270141 -0.357416,0.307155 -0.362969,0.332197 -0.404114,1.822543 l -0.04172,1.511109 h -0.757717 -0.757717 z"
     id="path4691"
     inkscape:connector-curvature="0" />
</svg>
